<svg xmlns="http://www.w3.org/2000/svg" enable-background="new 0 0 2500 2500" viewBox="0 0 2500 2500"><path fill="#010f2d" d="M1880.48,1905.09c-0.04,0-0.07,0-0.1,0c-1.5-0.05-2.67-1.31-2.62-2.81c3.14-85.19,2.66-307.82-36.68-314.93
			c-47.77-8.61-86.58,53.67-86.97,54.3c-0.79,1.27-2.45,1.69-3.74,0.9c-1.28-0.78-1.68-2.46-0.9-3.73
			c1.65-2.7,41.06-66.09,92.57-56.82c51.12,9.23,42.31,288.65,41.14,320.48C1883.14,1903.93,1881.94,1905.09,1880.48,1905.09z"/><path fill="#fff" d="M1914.33,1719.21c0,0,16.68-42.81,44.81-35.77c28.14,7.03,36.49,88.81,36.49,88.81"/><path fill="#010f2d" d="M1995.63,1774.96c-1.38,0-2.56-1.04-2.7-2.44c-2.27-22.22-12.89-81.06-34.45-86.44
				c-25.46-6.34-41.46,33.72-41.63,34.12c-0.55,1.4-2.11,2.1-3.52,1.54c-1.4-0.54-2.09-2.12-1.55-3.52
				c0.72-1.84,17.91-44.94,48.01-37.42c29.65,7.41,38.19,87.75,38.54,91.17c0.15,1.49-0.93,2.83-2.43,2.98
				C1995.82,1774.96,1995.73,1774.96,1995.63,1774.96z"/><path fill="#fff" d="M2084.01,1295.14l-716.09,0c-50.58,0-87.2-41-81.8-91.58l61.37-574.42c5.4-50.58,50.79-91.58,101.37-91.58
						l716.09,0c50.58,0,87.2,41,81.8,91.58l-61.37,574.42C2179.98,1254.14,2134.59,1295.14,2084.01,1295.14z"/><path fill="#010f2d" d="M2084.01,1297.86h-716.09c-25.14,0-47.78-9.78-63.75-27.54c-16.09-17.9-23.46-41.71-20.76-67.06
						l61.37-574.42c5.54-51.84,52.23-94.01,104.07-94.01h716.09c25.15,0,47.79,9.78,63.75,27.54c16.09,17.9,23.46,41.71,20.75,67.05
						l-61.37,574.42C2182.55,1255.69,2135.86,1297.86,2084.01,1297.86z M1448.86,540.27c-49.15,0-93.41,39.99-98.67,89.16
						l-61.37,574.42c-2.54,23.79,4.35,46.1,19.39,62.84c14.92,16.59,36.12,25.74,59.7,25.74h716.09c49.15,0,93.41-39.99,98.67-89.16
						l61.37-574.42c2.54-23.78-4.34-46.1-19.39-62.84c-14.92-16.6-36.13-25.74-59.71-25.74H1448.86z"/><ellipse cx="2059.23" cy="594.25" fill="#c0eed5" rx="16.34" ry="14.69" transform="rotate(-43.473 2059.194 594.28)"/><ellipse cx="2110.68" cy="594.25" fill="#4970fa" rx="16.34" ry="14.69" transform="rotate(-43.473 2110.651 594.281)"/><ellipse cx="2162.14" cy="594.25" fill="#ffa58d" rx="16.34" ry="14.69" transform="rotate(-43.473 2162.108 594.282)"/><polygon fill="#fff" points="1931.1 1295.15 1571.12 1295.15 1571.12 1081.2 1942.47 1081.2"/><path fill="#010f2d" d="M1931.1,1297.86h-359.98c-1.5,0-2.72-1.22-2.72-2.72V1081.2c0-1.5,1.22-2.72,2.72-2.72h371.34
							c0.75,0,1.46,0.31,1.97,0.85c0.51,0.54,0.78,1.27,0.74,2.01l-11.36,213.95C1933.74,1296.73,1932.54,1297.86,1931.1,1297.86z
							 M1573.84,1292.43h354.68l11.07-208.51h-365.76V1292.43z"/><path fill="#4970fa" d="M1190.66,703.42c0,0-25.73,2.27-55.69,37.01s-44.02,106.92-12.13,115.3
										c31.89,8.39,102.35-24.45,102.35-24.45s29.58-83.31,27.66-88.42C1250.94,737.77,1190.66,703.42,1190.66,703.42z"/><path fill="#010f2d" d="M1135,859.82c-4.68,0-9.02-0.45-12.85-1.45c-8.5-2.24-14.65-8.72-17.76-18.75
										c-8.11-26.13,5.49-74.25,28.52-100.96c30.34-35.18,56.42-37.85,57.51-37.95c0.55-0.06,1.1,0.07,1.58,0.35
										c22.83,13.01,61.42,35.62,63.39,40.86c1.97,5.25-16.48,58.82-27.65,90.28c-0.24,0.69-0.75,1.25-1.42,1.55
										C1223.77,834.95,1169.95,859.82,1135,859.82z M1190.12,706.24c-4.46,0.75-27.2,5.95-53.09,35.97
										c-22.01,25.52-35.09,71.18-27.45,95.79c2.57,8.26,7.26,13.34,13.95,15.1c28.57,7.5,90.71-19.85,99.48-23.81
										c13.31-37.54,27.08-79.42,27.22-85.49C1246.82,739.81,1217.5,721.87,1190.12,706.24z"/><path fill="#fff" d="M1155.3,846.97l60.91-88.21l-43.46-26.99l-55.15-38.43c0,0-66.96-91.26-86.93-78.37
											c-18.69,11.97,20.85,57.14,20.85,57.14s56.79,29.67,46.23,49.05c-2.74,5.03-11.56,3.43-21.84-0.86
											c-0.04-0.01-0.04-0.01-0.04-0.01s-0.04-0.01-0.08-0.05c-18.99-7.79-42.83-24.41-42.83-24.41s-13.67,8.81-17.32,25.14
											c0,0-18.77,12.27-12.12,28.81C1028.37,775.9,1155.3,846.97,1155.3,846.97z"/><path fill="#010f2d" d="M1155.29,849.69c-0.45,0-0.91-0.11-1.32-0.35c-5.2-2.91-127.57-71.57-152.43-97.69
											c-0.24-0.25-0.42-0.54-0.56-0.86c-5.67-14.1,5.06-26.37,12.25-31.48c4.17-16.54,17.67-25.39,18.25-25.77
											c0.93-0.59,2.12-0.57,3.03,0.06c0.24,0.17,23.82,16.54,42.31,24.13c0.08,0.04,0.16,0.07,0.23,0.11
											c9.91,4.12,16.75,4.87,18.31,2.02c1.12-2.06,1.28-4.35,0.47-6.99c-5.19-17.08-45.17-38.14-45.58-38.35
											c-0.3-0.16-0.56-0.37-0.79-0.62c-1.18-1.35-28.95-33.32-26.36-51.59c0.59-4.19,2.64-7.43,6.09-9.64
											c20.81-13.45,78.27,62.31,90.32,78.69l54.78,38.18l43.34,26.91c0.63,0.39,1.08,1.03,1.23,1.75c0.15,0.73,0,1.49-0.42,2.1
											l-60.91,88.22C1157.01,849.28,1156.16,849.69,1155.29,849.69z M1005.85,748.29c23.33,23.96,131.9,85.66,148.62,95.1
											l57.88-83.83l-41.04-25.48l-55.28-38.51c-0.24-0.17-0.46-0.38-0.64-0.62c-25.3-34.48-70.29-86.05-83.26-77.7
											c-2.09,1.34-3.28,3.25-3.65,5.83c-1.84,12.94,16.92,37.84,24.74,46.86c4.84,2.57,42.21,22.95,47.8,41.34
											c1.24,4.06,0.93,7.81-0.9,11.18c-4.83,8.86-20.21,2.46-25.27,0.35v0c-0.07-0.03-0.14-0.06-0.21-0.1
											c-16.41-6.75-35.94-19.68-41.64-23.55c-3.43,2.68-12.04,10.43-14.72,22.4c-0.15,0.69-0.57,1.29-1.16,1.68
											C1016.44,723.69,1000.67,734.28,1005.85,748.29z"/><path fill="#fff" d="M1197.76,749.55l-40.04-58.18c-4.8-14.15-19.13-22.75-33.88-20.32l-31.19,3.23
											c-7.29,1.2-12.44,7.78-11.87,15.14l0,0c0.55,7.01,6.14,12.56,13.15,13.07l27.6,1.51l13.85,45.55"/><path fill="#010f2d" d="M1135.39,752.27c-1.17,0-2.24-0.75-2.6-1.93l-13.29-43.72l-25.7-1.41
											c-8.47-0.61-15.06-7.16-15.71-15.57c-0.69-8.84,5.39-16.6,14.13-18.04l31.36-3.25c15.83-2.58,31.24,6.53,36.6,21.79
											l39.83,57.87c0.85,1.24,0.54,2.93-0.7,3.78c-1.24,0.85-2.93,0.54-3.78-0.7l-40.04-58.17c-0.14-0.21-0.25-0.43-0.33-0.67
											c-4.39-12.95-17.37-20.72-30.86-18.51l-31.36,3.25c-5.78,0.96-9.91,6.22-9.44,12.23c0.45,5.71,4.92,10.16,10.63,10.57
											l27.55,1.51c1.14,0.06,2.12,0.83,2.45,1.93l13.85,45.54c0.44,1.43-0.38,2.95-1.81,3.39
											C1135.91,752.23,1135.65,752.27,1135.39,752.27z"/><path fill="#fff" d="M1032.96,695.83c0,0,23.84,16.62,42.83,24.41c0.04,0.05,0.08,0.05,0.08,0.05s0,0,0.04,0.01
											c10.29,4.29,19.1,5.89,21.84,0.86c10.56-19.38-46.23-49.05-46.23-49.05l-0.4,0.11
											C1048.63,672.96,1034.91,677.77,1032.96,695.83z"/><path fill="#010f2d" d="M1091.03,727.03c-6.06,0-13.07-2.92-16.18-4.21v0c-0.07-0.03-0.14-0.06-0.21-0.1
											c-19.03-7.83-42.26-23.97-43.24-24.65c-0.81-0.57-1.26-1.54-1.15-2.52c2.13-19.65,17.11-25.04,20.09-25.92l0.45-0.13
											c0.66-0.18,1.37-0.11,1.98,0.21c1.73,0.9,42.4,22.34,48.25,41.59c1.24,4.06,0.93,7.81-0.9,11.18
											C1098.27,725.88,1094.84,727.03,1091.03,727.03z M1077.05,717.84c9.91,4.12,16.75,4.87,18.31,2.02
											c1.12-2.06,1.28-4.35,0.47-6.99c-4.74-15.58-38.43-34.48-44.61-37.83c-3.22,1.11-13.18,5.63-15.36,19.5
											c5.29,3.59,25.01,16.66,40.95,23.19C1076.9,717.76,1076.97,717.8,1077.05,717.84z"/><path fill="#fff" d="M1015.63,720.97c0,0,33.67,21.71,42.01,25.62c8.34,3.96,20.08,4.64,24.01-2.28
											c6.4-11.29-4.82-23.07-5.75-24.01c-0.04-0.01-0.04-0.01-0.04-0.01s-0.04-0.01-0.08-0.05
											c-18.99-7.79-42.83-24.41-42.83-24.41S1019.28,704.64,1015.63,720.97z"/><path fill="#010f2d" d="M1070.17,752.25c-4.52,0-9.4-1.16-13.69-3.2c-8.4-3.94-40.94-24.9-42.32-25.8
											c-0.96-0.62-1.43-1.77-1.18-2.88c3.85-17.22,17.9-26.44,18.5-26.83c0.93-0.59,2.12-0.57,3.03,0.06
											c0.24,0.17,23.82,16.54,42.31,24.13c0.13,0.06,0.27,0.12,0.39,0.2c0.24,0.13,0.45,0.29,0.64,0.47
											c1.4,1.43,13.5,14.34,6.17,27.25C1081.4,750.26,1076.09,752.25,1070.17,752.25z M1018.75,719.74
											c6.84,4.39,33.01,21.09,40.05,24.39c7.55,3.58,17.58,3.97,20.49-1.16c4.96-8.74-3.14-18.39-4.98-20.4
											c-16.34-6.79-35.64-19.56-41.3-23.41C1029.75,701.71,1021.84,708.81,1018.75,719.74z"/><path fill="#fff" d="M1062.1,769.7c-10.04,10.36-58.61-19.91-58.61-19.91c-3.65-11.19,1.5-20.57,12.15-28.82l38.2,23.64
											C1053.84,744.61,1072.17,759.35,1062.1,769.7z"/><path fill="#010f2d" d="M1055.53,774.47c-16.58,0-46.56-18.06-53.48-22.37c-0.54-0.34-0.95-0.86-1.15-1.47
											c-3.75-11.48,0.65-22.18,13.07-31.81c0.9-0.69,2.14-0.76,3.1-0.16l38.2,23.64c0.75,0.58,11.95,9.68,12.55,19.46
											c0.23,3.72-1.04,7.03-3.76,9.84C1062.09,773.62,1059.13,774.47,1055.53,774.47z M1005.79,748.02
											c19.41,11.96,48.57,25.75,54.36,19.79l0,0c1.64-1.68,2.37-3.55,2.24-5.72c-0.38-6.14-7.53-13.18-10.26-15.36l-36.29-22.44
											C1006.61,731.91,1003.4,739.51,1005.79,748.02z"/><path fill="#4970fa" d="M1608.79,679.08c0,0-23.62-2.21-66.06,24.33c-34.49,21.57-156.26,120.6-156.26,120.6l-195.81-120.6
										c17.09,7.84,14.79,109.59-67.82,152.32c0,0,200.98,154.63,268.42,149.44c67.44-5.19,262.04-184.98,259.65-185.77
										C1648.51,818.61,1608.79,679.08,1608.79,679.08z"/><path fill="#010f2d" d="M1387.86,1008.02c-70.71,0.01-258.58-143.9-266.68-150.13c-0.74-0.57-1.13-1.47-1.05-2.4
										c0.08-0.93,0.63-1.75,1.46-2.17c60.77-31.43,75.52-94.8,74.83-123.92c-0.3-12.86-3.21-20.61-6.05-22.97l-1.13-0.7
										c-1.22-0.75-1.65-2.33-0.97-3.6c0.68-1.27,2.24-1.79,3.53-1.19c0.58,0.27,1.15,0.61,1.69,1.02l192.77,118.73
										c14.68-11.92,122.46-99.2,155.03-119.58c42.71-26.71,66.76-24.82,67.75-24.74c1.12,0.11,2.06,0.88,2.36,1.96
										c15.06,52.89,38.38,133.03,41.54,139.27c0.51,0.58,0.78,1.36,0.68,2.17c-0.48,3.91-57.35,55-105.87,93.97
										c-51.59,41.43-120.58,91.4-156.28,94.14C1390.31,1007.98,1389.1,1008.02,1387.86,1008.02z M1127.85,856.13
										c26.07,19.72,196.15,146.46,259.88,146.46c1.14,0,2.24-0.04,3.31-0.12c63.01-4.84,243.24-168.28,256.86-183.53
										c-3.31-7.59-12.09-35.02-41.18-137.16c-6.21,0.16-28.11,2.4-62.56,23.95c-33.95,21.23-154.77,119.41-155.98,120.41
										c-0.9,0.73-2.16,0.8-3.14,0.21l-185.56-114.29c1.39,4.6,2.21,10.43,2.37,17.23
										C1202.61,761.14,1187.73,822.99,1127.85,856.13z"/><g><path fill="#fff" d="M1950.83,1189.5c0,0-110.78,29.25-231.95,10.43c-18.82-2.91-37.57-6.84-55.79-12.05
										c-33.66-9.57-65.53-23.42-92.62-43.1c0,0-28.98-160-19.16-322.2c5.92-97.57,89.28-143.21,108.87-139.09
										c28.99,6.08,52.69,16.09,52.69,16.09s38.36-25.16,54.94-30.91c1.97-0.69,4.07-1.29,6.31-1.83
										c45.92-11.08,97.63,23.84,127.87,59.82C1965.91,802.71,1950.83,1189.5,1950.83,1189.5z"/><path fill="#010f2d" d="M1803.56,1208.91c-26.86,0-55.72-1.73-85.11-6.29c-19.82-3.07-38.7-7.15-56.12-12.12
										c-36.59-10.4-68.04-25.05-93.47-43.51c-0.57-0.41-0.95-1.02-1.08-1.71c-0.29-1.6-28.92-162.18-19.2-322.85
										c4.17-68.66,46.1-107.71,63.94-121.31c18.41-14.03,38.25-22.36,48.2-20.28c25.02,5.25,46.38,13.5,51.84,15.7
										c6.75-4.38,39.1-25.13,54.33-30.43c2-0.71,4.15-1.33,6.58-1.9c45.71-11.02,98.5,22.56,130.58,60.72
										c63.87,75.98,50.1,448.85,49.48,464.69c-0.05,1.19-0.87,2.22-2.02,2.52C1950.68,1192.35,1886.71,1208.91,1803.56,1208.91z
										 M1572.94,1143.23c24.76,17.79,55.33,31.93,90.88,42.04c17.21,4.92,35.87,8.94,55.46,11.98
										c110.54,17.16,213.57-6.16,228.89-9.88c1.04-30.39,11.88-387.38-48.28-458.94c-31-36.88-81.72-69.41-125.15-58.93
										c-2.24,0.53-4.22,1.1-6.04,1.74c-16.08,5.59-53.97,30.38-54.35,30.62c-0.76,0.49-1.71,0.58-2.55,0.23
										c-0.23-0.1-23.81-9.98-52.19-15.93c-7.02-1.49-24.77,4.77-43.79,19.28c-17.24,13.15-57.78,50.9-61.81,117.32
										C1544.74,975.88,1570.46,1128.94,1572.94,1143.23z M1950.83,1189.5h0.04H1950.83z"/></g><g><path fill="#fff" d="M1760.63,877.27l-2.2-1.73C1759.15,875.91,1759.89,876.48,1760.63,877.27z"/><path fill="#010f2d" d="M1760.63,879.99c-0.59,0-1.19-0.19-1.68-0.58l-2.2-1.73c-1.1-0.87-1.36-2.43-0.6-3.61
										c0.75-1.17,2.29-1.58,3.53-0.94c1.01,0.52,1.99,1.29,2.93,2.29c0.98,1.03,0.99,2.65,0.02,3.7
										C1762.1,879.69,1761.37,879.99,1760.63,879.99z"/></g><g><path fill="#4970fa" d="M1971.74,1208.45c0,0-120.18,47.78-241.36,28.96c0,0-34.36-266.32-15.48-351.77
										c12.78-57.82,53.83-108.21,59.21-218.8c45.92-11.08,144.32,8.32,174.56,44.3
										C2012.61,787.19,1971.74,1208.45,1971.74,1208.45z"/><path fill="#010f2d" d="M1789.07,1244.48c-19.37,0-39.24-1.29-59.11-4.37c-1.2-0.19-2.12-1.14-2.28-2.34
										c-1.41-10.89-34.21-267.77-15.44-352.71c4.42-20.01,12.29-39.39,20.63-59.91c16.4-40.39,35-86.16,38.52-158.43
										c0.06-1.21,0.91-2.23,2.08-2.51c48.42-11.67,146.79,8.92,177.28,45.2c63.93,76.04,25.36,482.07,23.68,499.32
										c-0.1,1.02-0.75,1.89-1.7,2.26C1971.73,1211.38,1887.12,1244.48,1789.07,1244.48z M1732.81,1235.04
										c111.07,16.55,222.06-23.15,236.37-28.52c2.7-29.09,37.86-421.72-22.59-493.62c-28.24-33.59-122.68-54.04-169.87-43.86
										c-3.82,72.01-22.4,117.75-38.81,158.16c-8.25,20.3-16.04,39.47-20.36,59.04C1699.85,966.33,1729.7,1210.19,1732.81,1235.04
										z M1971.74,1208.45h0.04H1971.74z"/></g><g><path fill="#4970fa" d="M1650.94,1219.83c-33.66-9.57-74.57-11.47-101.67-31.14c0,0-32.52-209.94-22.69-372.13
										c5.92-97.57,48.53-130.73,73.25-135.72c18.75-3.79,40.76-1.46,60.35,2.66c-0.28,2.61-23.86,65.91-8.15,207.68
										C1655.88,925.96,1649.14,1146.49,1650.94,1219.83z"/></g><g><path fill="#010f2d" d="M1650.94,1222.55c-0.25,0-0.5-0.04-0.74-0.1c-10.25-2.92-21.46-5.17-32.3-7.35
										c-25.06-5.04-50.98-10.24-70.22-24.21c-0.59-0.42-0.98-1.07-1.09-1.78c-0.33-2.1-32.45-212.09-22.72-372.72
										c0.1-1.5,1.54-2.59,2.88-2.55c1.5,0.09,2.64,1.38,2.55,2.88c-9.33,153.94,19.96,353.58,22.5,370.43
										c18.2,12.79,43.09,17.79,67.17,22.63c9.72,1.95,19.73,3.96,29.18,6.47c-0.66-33.77,0.22-94.67,1.08-153.64
										c1.09-74.77,2.21-152.09,0.1-171.13c-12.45-112.28-0.81-176.92,7.45-205.89c-18.96-3.67-44.81-5.66-62.4-2.1
										c-1.45,0.26-2.91-0.65-3.2-2.13c-0.3-1.47,0.65-2.91,2.13-3.2c19.24-3.89,47.73-1.45,67.43,2.68
										c1.36,0.29,2.29,1.56,2.14,2.95c-0.03,0.27-0.23,1.08-0.62,2.43c-8.16,28.15-19.99,92.17-7.52,204.66
										c2.15,19.38,1.07,93.42-0.07,171.81c-0.89,61.11-1.81,124.29-1,157.08c0.02,0.86-0.37,1.69-1.05,2.22
										C1652.12,1222.36,1651.53,1222.55,1650.94,1222.55z"/></g><g><path fill="#4970fa" d="M1702.2,1037.27h-0.07c-30.58-19.91-20.58-66.81,0-106.85c24.58-47.79,56.3-54.88,56.3-54.88
										C1892.74,1004.51,1715.74,1038.48,1702.2,1037.27z"/><path fill="#010f2d" d="M1702.88,1040.01c-0.3,0-0.57-0.01-0.79-0.02c-0.51-0.01-1.01-0.16-1.44-0.44
										c-27.05-17.61-27.4-58.87-0.93-110.37c24.88-48.37,56.78-55.99,58.12-56.29c0.9-0.21,1.82,0.06,2.48,0.69
										c44.35,42.59,59.85,79.57,46.04,109.89C1786.95,1026.07,1715.27,1040.01,1702.88,1040.01z M1703.01,1034.59
										c0.07,0,0.13,0,0.21,0c11.24,0,80.17-13.81,98.19-53.38c12.64-27.75-2.07-62.28-43.72-102.63
										c-6.18,2.02-32.34,12.66-53.13,53.08C1695.22,949.83,1667.66,1010.69,1703.01,1034.59z"/></g><g><path fill="#fff" d="M1789.68,934.63c0,0-30.75-17.03-39.73-24.47c-16.98-14.05-59.16-64.78-70.79-52.53
											c-11.67,12.24,4.84,34.21,4.84,34.21s-71.92-42.53-82.17-24.41c-6.48,11.52,23.3,28.63,25.1,29.67
											c-2.1-0.74-39.9-14.17-43.29-1.44c-4.41,16.45,38.65,29.89,40.8,30.56c-1.92-0.21-41.25-4.26-35.79,11.06
											c4.95,13.94,34.57,16.8,41.19,17.32c-7.1-0.01-41.92,0.52-29.06,16.3c14.32,17.46,83.6,19.14,110.63,28.33
											c11.42,3.88,41.32,24.93,41.32,24.93"/><path fill="#010f2d" d="M1752.72,1026.87c-0.54,0-1.09-0.16-1.56-0.5c-0.3-0.21-29.7-20.87-40.63-24.58
											c-9.66-3.28-25.08-5.62-41.41-8.1c-29.84-4.52-60.71-9.2-70.45-21.08c-3.39-4.15-4.29-7.96-2.69-11.33
											c1.8-3.78,6.62-6.1,12.63-7.5c-9.97-2.75-19.65-7.49-22.54-15.61c-1.5-4.22-0.22-7.15,1.13-8.85
											c3.6-4.56,12.37-6.08,20.62-6.43c-13.69-6.01-30.06-15.92-26.83-27.95c0.65-2.42,2.25-4.37,4.64-5.63
											c5.83-3.07,16.25-1.83,25.51,0.3c-8.44-6.86-16.05-15.78-11.69-23.53c1.47-2.59,3.87-4.35,7.16-5.22
											c15.91-4.27,52.74,14.25,69.82,23.58c-3.95-8.18-7.35-20.2,0.75-28.69c1.69-1.78,3.88-2.7,6.5-2.73c0.05,0,0.1,0,0.14,0
											c11.3,0,28.86,16.7,50.63,38.53c6.92,6.94,12.9,12.94,17.23,16.52c8.69,7.19,39.01,24.02,39.32,24.19
											c1.31,0.73,1.79,2.38,1.06,3.69c-0.73,1.32-2.38,1.79-3.69,1.06c-1.26-0.7-31.07-17.24-40.15-24.76
											c-4.52-3.75-10.59-9.83-17.61-16.87c-15.55-15.59-36.83-36.93-46.76-36.93c-0.03,0-0.06,0-0.08,0
											c-1.13,0.01-1.96,0.34-2.63,1.04c-9.97,10.46,4.89,30.5,5.04,30.7c0.78,1.03,0.72,2.48-0.15,3.44
											c-0.86,0.97-2.29,1.19-3.41,0.53c-15.55-9.19-59.27-32.12-74.59-28.05c-1.85,0.5-3.11,1.36-3.83,2.64
											c-3.5,6.24,10.01,17.83,24.05,25.96c1.21,0.7,1.72,2.23,1.13,3.51c-0.59,1.28-2.04,1.9-3.35,1.44
											c-13.89-4.94-31.67-8.79-37.84-5.52c-1.38,0.73-1.75,1.61-1.91,2.22c-2.75,10.26,21.8,21.92,38.98,27.26
											c1.34,0.41,2.14,1.78,1.85,3.15c-0.29,1.38-1.56,2.33-2.96,2.15c-10.57-1.14-28.77-1.14-32.66,3.78
											c-0.51,0.64-0.99,1.64-0.28,3.66c3.36,9.45,22.27,14.22,38.85,15.53c1.45,0.12,2.56,1.36,2.5,2.82
											c-0.06,1.46-1.26,2.61-2.71,2.61c-0.08,0.02-0.19,0-0.28,0c-15.35,0-26.85,2.53-28.66,6.32
											c-0.78,1.62,0.65,3.91,1.99,5.55c8.41,10.26,39.57,14.98,67.05,19.15c16.57,2.51,32.23,4.88,42.34,8.32
											c11.66,3.96,40.78,24.42,42.01,25.28c1.23,0.86,1.52,2.56,0.66,3.79C1754.41,1026.47,1753.57,1026.87,1752.72,1026.87z"/><g><path fill="#010f2d" d="M1663.67,913.25c-0.31,0-0.63-0.05-0.93-0.17l-36.65-13.4c-1.41-0.51-2.13-2.07-1.62-3.49
												c0.51-1.41,2.07-2.13,3.49-1.62l36.65,13.4c1.41,0.51,2.13,2.07,1.62,3.49C1665.82,912.57,1664.78,913.25,1663.67,913.25
												z"/><path fill="#010f2d" d="M1654.62,937.35c-0.24,0-0.49-0.03-0.73-0.1l-30.1-8.43c-1.44-0.41-2.29-1.91-1.89-3.35
												c0.4-1.44,1.89-2.28,3.35-1.89l30.1,8.43c1.44,0.41,2.29,1.91,1.89,3.35C1656.9,936.56,1655.81,937.35,1654.62,937.35z"/><path fill="#010f2d" d="M1657.13,963.05c-0.19,0-0.38-0.02-0.58-0.06l-26.45-5.7c-1.47-0.32-2.4-1.76-2.08-3.23
												c0.32-1.47,1.75-2.4,3.23-2.08l26.45,5.7c1.47,0.32,2.4,1.76,2.08,3.23C1659.51,962.17,1658.39,963.05,1657.13,963.05z"/></g></g><g><path fill="#4970fa" d="M1820.75,664.28c0,0,152.32-0.55,198.43,126.66c48.46,133.69,97.71,374.49,1.27,411.26
										c-117.36,44.74-318.31-164.92-318.31-164.92h0.07c30.8-3.87,120.66-85.05,56.23-161.73l2.2,1.73l143.37,113.8
										c-0.81-2.05-43.02-119.49-62.58-189.38"/><path fill="#010f2d" d="M1984.11,1211.23c-117.52,0.01-276.51-164.33-283.94-172.08c-0.75-0.79-0.97-1.94-0.54-2.94
										c0.42-1,1.41-1.65,2.5-1.65c15.71-1.99,54.52-29.79,69.97-69.2c8.45-21.56,12.58-54.35-15.75-88.07
										c-0.9-1.07-0.84-2.64,0.13-3.64c0.97-1,2.54-1.1,3.63-0.24l2.2,1.73l135.91,107.88c-10.33-28.97-42.72-120.93-59.41-180.59
										c-0.4-1.44,0.44-2.94,1.89-3.35c1.45-0.4,2.95,0.44,3.35,1.89c19.78,70.67,62.15,188.25,62.49,189.12
										c0.45,1.14,0.07,2.45-0.92,3.18c-0.99,0.73-2.34,0.71-3.3-0.05l-130.69-103.74c17.54,30.07,13.2,58.31,5.54,77.87
										c-14.43,36.81-49.14,65.33-69.64,71.53c26.93,27.07,205.94,201.23,311.96,160.78c92.79-35.37,47.49-268.9-2.86-407.79
										C1971.81,668.23,1822.92,667,1820.77,667c-0.01,0-0.01,0-0.02,0c-1.5,0-2.71-1.21-2.72-2.71c0-1.5,1.21-2.72,2.71-2.73
										c0,0,0.01,0,0.01,0c2.31,0,154.88,1.24,200.98,128.45c22.33,61.61,48.55,157.72,55.13,242.69
										c7.43,95.88-11.74,155.37-55.44,172.03C2009.67,1209.21,1997.14,1211.23,1984.11,1211.23z"/></g><g><line x1="1904.01" x2="1980.93" y1="991.07" y2="1048.79" fill="#4970fa"/><path fill="#010f2d" d="M1980.92,1051.51c-0.57,0-1.14-0.18-1.63-0.55l-76.92-57.72c-1.2-0.9-1.44-2.6-0.54-3.8
										c0.9-1.2,2.6-1.45,3.8-0.54l76.92,57.72c1.2,0.9,1.44,2.6,0.54,3.8C1982.56,1051.14,1981.75,1051.51,1980.92,1051.51z"/></g><g><line x1="1386.47" x2="1445.95" y1="824.02" y2="852.75" fill="#4970fa"/><path fill="#010f2d" d="M1445.94,855.47c-0.4,0-0.8-0.08-1.18-0.27l-59.48-28.74c-1.35-0.65-1.92-2.28-1.27-3.63
										c0.65-1.35,2.28-1.92,3.63-1.27l59.48,28.74c1.35,0.65,1.92,2.28,1.27,3.63C1447.93,854.91,1446.96,855.47,1445.94,855.47z
										"/></g><g><path fill="#fff" d="M1758.43,750.38c-34.1,10.3-62.47-35-62.47-35s-37.54,38.7-60.93,30.99
									c-23.36-7.74,24.6-65.73,24.6-65.73s20.37-1.38,33.89,2.86l84.59-15.44C1778.11,668.05,1777.86,744.51,1758.43,750.38z"/><path fill="#010f2d" d="M1748.07,754.64c-25.84,0-46.35-26.19-52.53-35.02c-8.83,8.53-39.91,36.42-61.36,29.32
									c-3.97-1.31-6.63-4-7.72-7.77c-5.12-17.82,27.36-57.77,31.08-62.27c0.48-0.58,1.17-0.93,1.91-0.98
									c0.85-0.06,20.42-1.32,34.24,2.77l83.94-15.33c0.8-0.13,1.61,0.07,2.23,0.59c0.62,0.52,0.98,1.28,0.97,2.09
									c-0.02,8.03-0.85,78.66-21.61,84.92C1755.41,754.13,1751.69,754.64,1748.07,754.64z M1695.96,712.66
									c0.1,0,0.19,0.01,0.29,0.01c0.83,0.09,1.57,0.55,2.02,1.26c0.27,0.44,27.65,43.41,59.38,33.84l0,0
									c12.27-3.71,17.27-47.52,17.71-76.46l-81.35,14.85c-0.44,0.08-0.88,0.05-1.3-0.08c-11.07-3.46-27.29-3.01-31.74-2.8
									c-10.04,12.34-32.86,43.94-29.29,56.39c0.59,2.05,1.92,3.36,4.2,4.11c21.48,7.11,57.76-29.93,58.13-30.3
									C1694.53,712.96,1695.23,712.66,1695.96,712.66z"/></g><g><path fill="#fff" d="M1751.79,571.74c0,0-0.82,79.92,13.46,97.81l-68.64,45.58l-36.97-34.49l-4.29-55.77L1751.79,571.74z"/><path fill="#010f2d" d="M1696.6,717.84c-0.67,0-1.34-0.25-1.85-0.73l-36.97-34.48c-0.5-0.47-0.8-1.1-0.86-1.78l-4.29-55.77
										c-0.08-1.06,0.47-2.07,1.4-2.59l96.45-53.14c0.85-0.46,1.88-0.45,2.71,0.05c0.83,0.5,1.33,1.39,1.32,2.36
										c-0.01,0.79-0.65,79.16,12.86,96.08c0.48,0.59,0.68,1.36,0.56,2.12c-0.12,0.75-0.55,1.42-1.18,1.84l-68.64,45.58
										C1697.64,717.69,1697.12,717.84,1696.6,717.84z M1662.26,679.38l34.62,32.3l64.57-42.88
										c-11.27-19.06-12.33-75.67-12.39-92.45l-90.87,50.07L1662.26,679.38z"/><path fill="#fff" d="M1700.81,623.8c-22.49,14.08-47.77,21.05-71.48,15.97c-58.13-12.46-79.42-64.96-66.64-124.57
										c12.78-59.61,74.11-115.7,139.61-93.42c58.46,19.89,76.46,79.32,47.58,162.93"/><path fill="#010f2d" d="M1645.04,644.12c-5.57,0-11.01-0.56-16.28-1.69c-55.83-11.97-82.8-62.13-68.72-127.8
										c7.7-35.91,31.99-69.27,63.39-87.08c25.58-14.51,53.16-17.39,79.75-8.34c24.47,8.33,42.15,23.32,52.54,44.56
										c14.89,30.41,13.76,72.55-3.27,121.84c-0.49,1.42-2.03,2.18-3.46,1.68c-1.42-0.49-2.17-2.04-1.68-3.46
										c16.54-47.89,17.76-88.58,3.52-117.67c-9.74-19.9-26.36-33.96-49.41-41.8c-25.09-8.54-51.12-5.8-75.32,7.92
										c-30.1,17.07-53.38,49.06-60.76,83.49c-13.38,62.44,11.95,110.07,64.55,121.35c21.38,4.59,46.07-0.96,69.47-15.61
										c1.28-0.79,2.95-0.41,3.75,0.86c0.8,1.27,0.41,2.95-0.86,3.75C1683.33,637.95,1663.53,644.12,1645.04,644.12z"/><path fill="#010f2d" d="M1745.41,532.62c-8.35-0.66-15.09,6.52-21.52,12.19s-16.25,10.16-22.67,4.48
										c-6.79-6.02-3.41-18.01,2.52-24.97c5.93-6.97,14.07-12.52,16.77-21.44c-12.16,6.03-27.3,4.73-38.38-3.29
										c-11.08-8.02-17.69-22.47-16.77-36.63c-39.24,17.99-88.04,9.78-120.05-20.21c-12.86-12.05-23.61-29.79-19.73-47.48
										c2.36-10.76,9.79-19.53,18.11-26.22c28.41-22.85,70.44-24.67,100.53-4.36c11.08-8.22,22.55-16.52,35.7-19.95
										s28.53-1,37.57,9.65c8.75,10.3,9.68,25.36,10.16,39.19c21.49-13.31,50.88-8.09,69.06,9.91
										c18.18,17.99,25.22,46.63,20.53,72.48c-4.7,25.85-20.14,48.71-39.99,64.61c-15.05,12.05-35.86,20.44-52.56,11.11"/><path fill="#fff" d="M1719.92,544.89c5.93-5.25,19.4-11.66,27.21-12.95c7.81-1.29,16.49,0.93,21.63,6.96
										c5.24,6.15,5.45,15.27,2.56,22.82c-9.26,24.13-32.14,25.87-40.03,24.13"/><path fill="#010f2d" d="M1736.46,589.06c-2.19,0-4.15-0.21-5.75-0.56c-1.47-0.32-2.39-1.77-2.07-3.24
										c0.32-1.47,1.77-2.37,3.24-2.07c5.51,1.21,27.94,0.95,36.91-22.45c2.83-7.38,2.01-15.27-2.09-20.08
										c-4.17-4.89-11.66-7.27-19.11-6.04c-7.28,1.2-20.32,7.41-25.85,12.31c-1.12,0.99-2.84,0.89-3.84-0.23
										c-0.99-1.12-0.89-2.84,0.23-3.84c6.34-5.61,20.23-12.22,28.57-13.6c9.45-1.55,18.68,1.47,24.14,7.88
										c5.46,6.41,6.61,16.19,3.03,25.55C1765.94,583.34,1747.94,589.06,1736.46,589.06z"/><path fill="#010f2d" d="M1620.23,566.48c-0.08,0-0.16,0-0.24-0.01c-1.38-0.12-13.64-1.31-19.23-6.39
										c-0.94-0.86-2.7-2.46-3.16-4.8c-0.5-2.47,0.6-4.65,1.33-6.09l18.23-35.97c0.68-1.33,2.31-1.88,3.65-1.2
										c1.34,0.68,1.88,2.31,1.2,3.65l-18.23,35.97c-0.39,0.77-0.98,1.94-0.85,2.57c0.12,0.59,1.02,1.42,1.5,1.85
										c3.59,3.27,12.79,4.71,16.03,4.99c1.49,0.13,2.6,1.44,2.47,2.94C1622.81,565.41,1621.62,566.48,1620.23,566.48z"/><ellipse cx="1644.54" cy="527.75" fill="#010f2d" rx="8.45" ry="7.7" transform="rotate(-81.599 1644.436 527.755)"/><ellipse cx="1589.39" cy="522.28" fill="#010f2d" rx="8.45" ry="7.7" transform="rotate(-81.599 1589.29 522.29)"/><g><path fill="#010f2d" d="M1630.32,601.71c-4.81,0-9.38-1.41-12.92-4.14c-1.19-0.92-1.41-2.62-0.5-3.81
										c0.92-1.19,2.62-1.41,3.81-0.5c4.2,3.23,10.48,3.93,16.37,1.83c5.05-1.79,9.8-5.39,14.53-11c0.97-1.15,2.68-1.3,3.83-0.33
										c1.15,0.97,1.29,2.68,0.33,3.83c-5.38,6.37-10.89,10.49-16.87,12.62C1636.06,601.22,1633.15,601.71,1630.32,601.71z"/></g><g><path fill="#010f2d" d="M1661.26,517.87c-0.73,0-1.46-0.29-2-0.87c-5.14-5.56-13.74-7.8-20.95-5.44
										c-1.42,0.46-2.96-0.31-3.43-1.74s0.31-2.96,1.74-3.43c9.3-3.04,20-0.27,26.64,6.92c1.02,1.1,0.95,2.82-0.15,3.84
										C1662.58,517.63,1661.92,517.87,1661.26,517.87z"/></g><g><path fill="#010f2d" d="M1609,511.3c-0.73,0-1.46-0.29-2-0.87c-5.15-5.56-13.77-7.81-20.96-5.44
										c-1.42,0.47-2.96-0.31-3.43-1.74s0.31-2.96,1.74-3.43c9.29-3.03,20-0.27,26.64,6.92c1.02,1.1,0.95,2.82-0.15,3.84
										C1610.32,511.06,1609.66,511.3,1609,511.3z"/></g></g><g><path fill="#010f2d" d="M1548.92,1034.32c-2.98,0-5.98-0.47-8.9-1.43l-21.65-5.22c-1.95-0.47-3.14-2.43-2.67-4.37
										c0.47-1.95,2.45-3.16,4.37-2.67l21.93,5.29c5.75,1.86,11.58,1.39,16.68-1.26c5.11-2.65,8.85-7.16,10.53-12.68
										c15.08-49.56,15.47-134.47-31.55-159.32c-9.73-5.14-20.26-5.56-31.3-1.27c-36.4,14.16-73.07,77.47-87.49,117.89
										c-3.15,8.82,0.75,18.67,9.07,22.92l12.74,6.34c1.79,0.89,2.52,3.07,1.63,4.86c-0.89,1.79-3.07,2.53-4.86,1.63l-12.78-6.36
										c-11.58-5.92-16.99-19.59-12.63-31.82c13.85-38.85,50.99-106.38,91.69-122.21c13.09-5.1,25.64-4.55,37.31,1.62
										c50.64,26.76,50.88,115.97,35.11,167.84c-2.25,7.4-7.27,13.43-14.12,17C1557.9,1033.24,1553.43,1034.32,1548.92,1034.32z"/><circle cx="1454.28" cy="1010.04" r="17.31" fill="#ff4301"/><path fill="#010f2d" d="M1454.28,1030.06c-11.04,0-20.03-8.98-20.03-20.02s8.99-20.03,20.03-20.03s20.02,8.99,20.02,20.03
										S1465.32,1030.06,1454.28,1030.06z M1454.28,995.45c-8.04,0-14.59,6.55-14.59,14.59s6.55,14.59,14.59,14.59
										s14.59-6.54,14.59-14.59S1462.33,995.45,1454.28,995.45z"/><circle cx="1506.16" cy="1022.61" r="17.31" fill="#ff4301"/><path fill="#010f2d" d="M1506.16,1042.64c-11.04,0-20.02-8.99-20.02-20.03s8.98-20.02,20.02-20.02
										c11.04,0,20.02,8.98,20.02,20.02S1517.21,1042.64,1506.16,1042.64z M1506.16,1008.02c-8.04,0-14.59,6.54-14.59,14.59
										s6.54,14.59,14.59,14.59c8.04,0,14.59-6.55,14.59-14.59S1514.21,1008.02,1506.16,1008.02z"/><path fill="#010f2d" d="M1800.27,827.04c-0.25,0-0.52-0.03-0.78-0.08c-1.96-0.42-3.2-2.36-2.77-4.31
										c0.38-1.77,37.62-177.06-41.59-197.66c-1.94-0.5-3.1-2.48-2.59-4.42c0.51-1.94,2.47-3.1,4.42-2.59
										c85.91,22.34,48.48,198.72,46.85,206.21C1803.44,825.88,1801.94,827.04,1800.27,827.04z"/><path fill="#010f2d" d="M1539.34,853.08c-0.33,0-0.67-0.05-1.01-0.14c-1.93-0.56-3.03-2.57-2.48-4.49
										c1.99-6.86,49.36-168.45,118.03-208.16c1.73-1.02,3.95-0.41,4.95,1.32c1.01,1.73,0.41,3.95-1.32,4.95
										c-66.15,38.26-114.22,202.25-114.7,203.9C1542.36,852.05,1540.92,853.08,1539.34,853.08z"/><g><circle cx="1803.23" cy="816.89" r="39.99" fill="#fff"/><path fill="#010f2d" d="M1803.22,859.61c-23.55,0-42.71-19.16-42.71-42.71c0-23.55,19.16-42.71,42.71-42.71
										c23.55,0,42.71,19.16,42.71,42.71C1845.94,840.45,1826.78,859.61,1803.22,859.61z M1803.22,779.62
										c-20.55,0-37.27,16.72-37.27,37.28c0,20.55,16.72,37.28,37.27,37.28c20.55,0,37.28-16.72,37.28-37.28
										C1840.5,796.34,1823.78,779.62,1803.22,779.62z"/></g><g><circle cx="1803.23" cy="816.89" r="20.32" fill="#ff4301"/><path fill="#010f2d" d="M1803.22,839.93c-12.7,0-23.03-10.33-23.03-23.04c0-12.7,10.33-23.04,23.03-23.04
										s23.04,10.33,23.04,23.04C1826.26,829.6,1815.93,839.93,1803.22,839.93z M1803.22,799.29c-9.7,0-17.6,7.9-17.6,17.6
										c0,9.7,7.89,17.6,17.6,17.6c9.7,0,17.6-7.9,17.6-17.6C1820.82,807.19,1812.93,799.29,1803.22,799.29z"/></g></g><g><path fill="#4970fa" d="M1832.9,934.63c6.99,14.74,13.03,119.38-92.6,139.19"/><path fill="#010f2d" d="M1740.29,1076.54c-1.28,0-2.42-0.91-2.67-2.22c-0.28-1.48,0.7-2.9,2.17-3.17
								c38.16-7.16,65.31-26.1,80.71-56.3c17.01-33.37,13.97-70.55,9.94-79.06c-0.64-1.36-0.06-2.98,1.29-3.62
								c1.36-0.64,2.98-0.06,3.62,1.29c4.49,9.47,8.1,48.33-10.01,83.85c-16.2,31.78-44.65,51.69-84.55,59.17
								C1740.63,1076.52,1740.46,1076.54,1740.29,1076.54z"/></g><g><line x1="1779.9" x2="1835.86" y1="919.15" y2="968.55" fill="#4970fa"/><path fill="#010f2d" d="M1835.85,971.27c-0.64,0-1.28-0.22-1.8-0.68l-55.95-49.41c-1.13-0.99-1.23-2.71-0.24-3.84
								c1-1.13,2.71-1.23,3.84-0.24l55.95,49.41c1.13,0.99,1.23,2.71,0.24,3.84C1837.35,970.96,1836.6,971.27,1835.85,971.27z"/></g><g><line x1="1750.82" x2="1797.49" y1="1005.31" y2="1042.3" fill="#4970fa"/><path fill="#010f2d" d="M1797.49,1045.02c-0.59,0-1.19-0.19-1.68-0.59l-46.67-37c-1.18-0.93-1.37-2.64-0.44-3.82
								c0.93-1.17,2.64-1.38,3.82-0.44l46.67,37c1.17,0.93,1.37,2.64,0.44,3.82C1799.09,1044.67,1798.29,1045.02,1797.49,1045.02z"/></g><g><path fill="#4970fa" d="M1249.75,739.81c0,0,1.35,94.44-78.06,151.76"/><path fill="#010f2d" d="M1171.7,894.29c-0.85,0-1.68-0.39-2.21-1.13c-0.88-1.21-0.6-2.92,0.62-3.79
								c77.29-55.78,76.94-148.59,76.93-149.52c-0.02-1.5,1.18-2.74,2.68-2.76c0.01,0,0.03,0,0.04,0c1.48,0,2.7,1.19,2.72,2.68
								c0.01,0.96,0.45,96.53-79.19,154.01C1172.81,894.12,1172.25,894.29,1171.7,894.29z"/></g><g><line x1="1198.85" x2="1246.62" y1="739.81" y2="769.42" fill="#4970fa"/><path fill="#010f2d" d="M1246.62,772.14c-0.49,0-0.98-0.13-1.43-0.41l-47.77-29.61c-1.27-0.79-1.67-2.47-0.88-3.74
								c0.79-1.27,2.47-1.67,3.74-0.88l47.77,29.61c1.27,0.79,1.67,2.47,0.88,3.74C1248.42,771.69,1247.53,772.14,1246.62,772.14z"/></g><g><line x1="1177.24" x2="1221.56" y1="805.32" y2="836.99" fill="#4970fa"/><path fill="#010f2d" d="M1221.55,839.71c-0.54,0-1.1-0.16-1.58-0.51l-44.31-31.67c-1.22-0.87-1.5-2.57-0.63-3.79
								c0.87-1.21,2.56-1.51,3.79-0.63l44.31,31.67c1.22,0.87,1.5,2.57,0.63,3.79C1223.24,839.31,1222.4,839.71,1221.55,839.71z"/></g><g><line x1="1682.77" x2="1686.49" y1="1291.77" y2="1233.95" fill="#fff"/><path fill="#010f2d" d="M1682.77,1294.49c-0.06,0-0.12,0-0.18-0.01c-1.5-0.1-2.64-1.39-2.54-2.88l3.72-57.82
							c0.1-1.5,1.48-2.63,2.88-2.54c1.5,0.1,2.64,1.39,2.54,2.88l-3.72,57.82C1685.39,1293.39,1684.19,1294.49,1682.77,1294.49z"/></g><g><path fill="#010f2d" d="M601.37,868.22c0,0-37.27-72.1-100.19-36.41c-62.92,35.69-40.84,115.17,33.83,113.59
						S601.37,868.22,601.37,868.22z"/><path fill="#2dc874" d="M1095.77,1197.89c0,0,37.2-5.81,65.87,55.95c32.19,69.35,9.77,88.76,9.77,88.76l-71.67,13.97
								l-37.14-49.81l-32.58-52.92L1095.77,1197.89z"/><path fill="#010f2d" d="M1099.74,1359.28c-0.85,0-1.66-0.4-2.18-1.09l-37.14-49.81l-32.71-53.12c-0.7-1.14-0.47-2.63,0.55-3.5
								l65.75-55.95c0.38-0.33,0.85-0.54,1.34-0.62c1.59-0.25,39.56-5.41,68.76,57.5c32.68,70.4,10.07,91.11,9.09,91.95
								c-0.36,0.31-0.79,0.52-1.26,0.61l-71.68,13.97C1100.08,1359.27,1099.91,1359.28,1099.74,1359.28z M1033.55,1254.4
								l31.36,50.93l35.98,48.24l69.15-13.48c2.73-3.22,17.27-24.48-10.87-85.11c-25.2-54.3-57.16-54.74-62.3-54.47L1033.55,1254.4z
								"/><path fill="#fff" d="M1117.51,1345.72l-53.39-92.84l45.49-23.29l58.08-33.73c0,0,74.17-85.36,93-70.88
									c17.62,13.46-25.46,55.18-25.46,55.18s-58.99,24.87-50.06,45.04c2.32,5.24,11.23,4.36,21.82,0.94c0.04,0,0.04,0,0.04,0
									s0.04,0,0.08-0.05c19.55-6.19,44.65-20.78,44.65-20.78s12.89,9.9,15.18,26.45c0,0,17.67,13.76,9.7,29.68
									C1253.98,1304.22,1117.51,1345.72,1117.51,1345.72z"/><path fill="#010f2d" d="M1117.51,1348.44c-0.95,0-1.86-0.5-2.36-1.36l-53.39-92.84c-0.37-0.64-0.46-1.42-0.25-2.13
									c0.21-0.71,0.7-1.31,1.37-1.65l45.49-23.29l57.56-33.43c13.34-15.32,76.68-86.08,96.41-70.91
									c3.25,2.48,5.02,5.87,5.27,10.09c1.08,18.4-29.2,47.95-30.5,49.2c-0.24,0.23-0.52,0.42-0.84,0.55
									c-0.42,0.18-41.96,17.85-48.53,34.43c-1.02,2.57-1.05,4.86-0.11,7c1.31,2.97,8.18,2.78,18.37-0.5
									c0.08-0.04,0.17-0.07,0.27-0.1c19.03-6.03,43.86-20.39,44.11-20.54c0.96-0.56,2.15-0.47,3.02,0.19
									c0.55,0.42,13.25,10.35,16.05,27.16c6.73,5.67,16.41,18.77,9.61,32.35c-22.95,43.34-155.16,83.96-160.77,85.67
									C1118.04,1348.4,1117.77,1348.44,1117.51,1348.44z M1067.9,1253.99l50.88,88.48c17.11-5.4,135.08-43.83,155.46-82.31
									c6.84-13.66-8.32-25.76-8.97-26.27c-0.56-0.44-0.92-1.07-1.02-1.77c-1.68-12.13-9.62-20.56-12.81-23.51
									c-5.98,3.38-26.43,14.61-43.3,19.98c-0.15,0.06-0.3,0.12-0.45,0.16c-5.34,1.72-20.96,6.68-25.01-2.47
									c-1.55-3.5-1.54-7.27,0.02-11.2c7.08-17.85,45.96-35.06,50.99-37.23c8.53-8.35,29.26-31.6,28.49-44.62
									c-0.16-2.6-1.18-4.6-3.15-6.1c-12.22-9.41-61.26,38.25-89.3,70.5c-0.2,0.23-0.43,0.42-0.69,0.57l-58.08,33.73
									L1067.9,1253.99z"/><path fill="#fff" d="M1083.25,1245.23l44.65-54.63c5.94-13.7,20.92-21.08,35.4-17.45l30.79,5.78
									c7.16,1.8,11.75,8.77,10.57,16.05l0,0c-1.12,6.93-7.15,12-14.17,11.93l-27.61-0.77l-17.53,44.21"/><path fill="#010f2d" d="M1145.35,1253.08c-0.33,0-0.67-0.06-1-0.19c-1.39-0.56-2.08-2.13-1.53-3.53l17.54-44.21
									c0.42-1.06,1.5-1.73,2.6-1.72l27.61,0.76c0.04,0,0.08,0,0.12,0c5.62,0,10.38-4.04,11.29-9.65
									c0.96-5.94-2.71-11.52-8.55-12.98l-30.63-5.74c-13.42-3.37-26.97,3.33-32.41,15.86c-0.1,0.23-0.23,0.44-0.39,0.64
									l-44.65,54.63c-0.95,1.16-2.66,1.33-3.83,0.39c-1.16-0.95-1.33-2.66-0.39-3.83l44.42-54.35
									c6.6-14.75,22.67-22.59,38.41-18.65l30.63,5.74c8.76,2.19,14.17,10.41,12.75,19.16c-1.34,8.26-8.35,14.22-16.7,14.22
									c-0.06,0-0.12,0-0.18,0l-25.75-0.71l-16.84,42.44C1147.45,1252.43,1146.43,1253.08,1145.35,1253.08z"/><path fill="#fff" d="M1251.75,1205.3c0,0-25.1,14.59-44.65,20.78c-0.04,0.04-0.08,0.05-0.08,0.05s0,0-0.04,0
									c-10.59,3.42-19.5,4.29-21.82-0.94c-8.92-20.17,50.06-45.04,50.06-45.04l0.39,0.14
									C1238.03,1181.23,1251.29,1187.15,1251.75,1205.3z"/><path fill="#010f2d" d="M1193.1,1231.65c-4.49,0-8.61-1.27-10.43-5.37c-1.55-3.5-1.54-7.27,0.02-11.2
									c7.41-18.68,49.67-36.68,51.47-37.44c0.64-0.27,1.36-0.28,2-0.04l0.39,0.15c2.93,1.13,17.41,7.72,17.91,27.48
									c0.02,0.99-0.5,1.92-1.35,2.42c-1.03,0.6-25.41,14.71-44.98,20.95c-0.15,0.06-0.3,0.12-0.45,0.16
									C1204.74,1229.71,1198.65,1231.65,1193.1,1231.65z M1235.27,1183.1c-6.44,2.83-41.52,18.87-47.52,33.99
									c-1.02,2.57-1.05,4.86-0.11,7c1.31,2.97,8.18,2.78,18.37-0.5c0.08-0.04,0.17-0.07,0.27-0.1
									c16.4-5.2,37.11-16.58,42.68-19.72C1247.93,1189.82,1238.46,1184.5,1235.27,1183.1z"/><path fill="#fff" d="M1266.94,1231.75c0,0-35.31,18.84-43.94,22.05c-8.63,3.25-20.38,2.97-23.71-4.24
									c-5.44-11.77,6.7-22.57,7.7-23.43c0.04,0,0.04,0,0.04,0s0.04,0,0.08-0.05c19.55-6.19,44.65-20.78,44.65-20.78
									S1264.64,1215.19,1266.94,1231.75z"/><path fill="#010f2d" d="M1212.37,1258.5c-6.83,0-13.04-2.38-15.55-7.79c-6.23-13.44,6.87-25.32,8.38-26.63
									c0.22-0.19,0.47-0.35,0.74-0.46c0.11-0.05,0.22-0.1,0.34-0.13c19.03-6.03,43.86-20.39,44.11-20.54
									c0.96-0.56,2.15-0.47,3.02,0.19c0.56,0.43,13.8,10.77,16.22,28.24c0.16,1.13-0.41,2.23-1.41,2.77
									c-1.45,0.77-35.57,18.96-44.27,22.2C1220.25,1257.75,1216.21,1258.5,1212.37,1258.5z M1208.39,1228.52
									c-2.19,2.01-10.87,10.75-6.63,19.9c2.47,5.35,12.49,5.79,20.29,2.84c7.29-2.71,34.72-17.19,41.89-20.99
									c-2.18-11.14-9.47-18.86-12.5-21.66C1245.48,1211.98,1225.21,1223.11,1208.39,1228.52z"/><path fill="#fff" d="M1216.66,1276.45c9.14,11.14,59.99-15,59.99-15c4.56-10.84,0.2-20.61-9.72-29.7l-39.98,20.4
									C1226.95,1252.14,1207.48,1265.31,1216.66,1276.45z"/><path fill="#010f2d" d="M1224.96,1281.82c-4.58,0-8.27-1.05-10.4-3.65l0,0c-2.48-3.02-3.47-6.41-2.94-10.1
									c1.4-9.69,13.3-17.84,13.81-18.18l40.27-20.57c1.01-0.51,2.23-0.35,3.07,0.42c11.57,10.61,15.07,21.63,10.39,32.76
									c-0.25,0.59-0.69,1.07-1.26,1.36C1270.95,1267.43,1241.9,1281.82,1224.96,1281.82z M1266.45,1235.04l-38.27,19.52
									c-2.61,1.8-10.32,8.23-11.19,14.29c-0.31,2.14,0.27,4.06,1.76,5.86c0,0,0,0,0,0c5.27,6.4,35.44-4.92,55.74-15.23
									C1277.59,1251.22,1275.01,1243.39,1266.45,1235.04z"/><g><path fill="#010f2d" d="M801.54,1698.67l202.62,405.96c4.4,8.81,1.07,19.52-7.55,24.28l0,0c-8.89,4.92-20.08,1.69-24.98-7.21
								l-213.41-387.13L801.54,1698.67z"/></g><g><path fill="#010f2d" d="M677.4,1736.8l32.33,401.02c0.7,7.98-5.01,15.1-12.95,16.17l0,0c-8.13,1.09-15.62-4.55-16.83-12.66
								l-65.89-426.78L677.4,1736.8z"/></g><g><path fill="#010f2d" d="M622.16,1721l-42.58,309.31c-0.83,6.03-5.98,10.52-12.06,10.52l0,0c-7.1,0-12.69-6.05-12.14-13.13
								l24.82-315.72L622.16,1721z"/></g><g><path fill="#010f2d" d="M540.9,1731.63l-211.41,392.91c-3.16,5.81-10.22,8.25-16.29,5.63h0c-6.58-2.85-9.53-10.56-6.53-17.07
								l183.04-406.28L540.9,1731.63z"/></g><g><path fill="#010f2d" d="M313.5,1256.27c0,0,139.38-23.3,218.89,74.44c79.51,97.74,114.45,275.49,170.66,311.95
								c56.21,36.46,222.32,44.56,219.28,68.87c-3.04,24.31-120.79,60.42-120.79,60.42l-83.3-13.83l-81.75-28.05
								c0,0-46.08-58.16-56.86-96.56c-10.78-38.4-49.91-108.35-49.91-108.35s-171.86-24.29-205.63-39.99
								c-33.77-15.7-72.76-133.69-61.12-167.12C274.62,1284.62,313.5,1256.27,313.5,1256.27z"/><path fill="#010f2d" d="M801.54,1774.67c-0.15,0-0.3-0.01-0.45-0.04l-83.3-13.83c-0.15-0.02-0.29-0.06-0.44-0.11l-81.75-28.05
								c-0.49-0.17-0.93-0.47-1.25-0.88c-1.9-2.39-46.55-59.03-57.35-97.51c-9.82-34.96-43.87-97.27-49.02-106.59
								c-17.31-2.47-172.5-24.9-205.05-40.03c-34.98-16.26-74.51-136.1-62.53-170.48c11.79-33.83,49.87-61.91,51.49-63.08
								c0.34-0.25,0.74-0.42,1.15-0.48c1.42-0.23,141.86-22.43,221.45,75.41c39.39,48.42,68.02,116.63,93.28,176.8
								c26.25,62.53,48.92,116.53,76.75,134.58c27.76,18.01,82.8,29,131.37,38.7c58.09,11.6,90.87,18.85,89.12,32.79
								c-3.16,25.32-110.46,58.94-122.68,62.68C802.08,1774.63,801.81,1774.67,801.54,1774.67z M718.91,1755.48l82.44,13.69
								c46.66-14.36,116.22-41.5,118.27-57.97c1.2-9.61-44.49-18.74-84.8-26.79c-49.04-9.8-104.63-20.9-133.26-39.47
								c-29.24-18.97-52.21-73.68-78.8-137.04c-25.12-59.83-53.59-127.66-92.49-175.47c-74.85-92.02-205.42-75.08-215.7-73.58
								c-4.62,3.5-38.53,29.94-49.04,60.09c-11.07,31.77,26.99,148.55,59.7,163.76c33.02,15.35,203.14,39.52,204.86,39.76
								c0.84,0.12,1.58,0.62,1.99,1.36c1.61,2.87,39.41,70.67,50.16,108.94c9.92,35.34,50.93,88.63,55.89,94.98L718.91,1755.48z"/></g><g><path fill="#fff" d="M1337.74,1932.86c0,0,13.18,18.99-36.7,77.52c-49.88,58.53-101.02,56.19-101.02,56.19l-6.86-94.79
									l33.21-51.79h29.13L1337.74,1932.86z"/><path fill="#010f2d" d="M1201.09,2069.31c-0.63,0-1.04-0.01-1.19-0.02c-1.38-0.06-2.49-1.14-2.59-2.52l-6.86-94.79
									c-0.04-0.58,0.11-1.17,0.42-1.66l33.21-51.79c0.5-0.78,1.36-1.25,2.29-1.25h29.14c0.14,0,0.28,0.01,0.42,0.03l82.23,12.87
									c0.73,0.12,1.39,0.53,1.81,1.14c1.47,2.12,12.94,22.4-36.86,80.84C1256.54,2066.8,1209.32,2069.31,1201.09,2069.31z
									 M1195.94,1972.48l6.61,91.33c10.56-0.48,54.14-5.57,96.42-55.2c41.3-48.47,38.35-68.85,36.89-73.3l-80.57-12.61h-27.44
									L1195.94,1972.48z"/><path fill="#2dc874" d="M1317.77,2145.34c3.45,2.27,8,2.01,11.13-0.71l162.61-141.09c4.19-3.62,4.23-10.09,0.12-13.79
										l-5.23-4.64l-3.91-3.51l-3.13-2.78c-5.93-5.28-14.09-7.42-21.91-5.72l-55.87,18.61l-5.24,1.73l-10.07,3.35l-5.22,1.75
										l-10.82,3.59l-5.14,1.72l-20.17,6.71l-4.03-4.72l-81.6,69.64l47.17,56.35l3.33,4L1317.77,2145.34z"/><path fill="#010f2d" d="M1322.87,2149.58c-2.29,0-4.59-0.65-6.59-1.97c-0.22-0.15-0.42-0.33-0.59-0.53l-58.46-69.86
										c-0.96-1.14-0.81-2.85,0.32-3.81l81.6-69.64c1.14-0.98,2.86-0.84,3.83,0.3l2.84,3.32l110.79-36.88
										c8.91-1.95,18,0.42,24.57,6.27l12.27,10.92c2.56,2.3,4,5.58,3.97,9c-0.04,3.42-1.54,6.65-4.12,8.88l-162.6,141.08
										C1328.47,2148.6,1325.68,2149.58,1322.87,2149.58z M1319.58,2143.26c2.4,1.39,5.45,1.13,7.55-0.68l162.61-141.09
										c1.42-1.23,2.22-2.94,2.24-4.82c0.02-1.87-0.76-3.65-2.15-4.89l-12.26-10.91c-5.29-4.7-12.6-6.62-19.52-5.1l-112.25,37.38
										c-1.05,0.34-2.2,0.02-2.92-0.81l-2.26-2.65l-77.48,66.13L1319.58,2143.26z"/><path fill="#010f2d" d="M1317.77,2145.34c3.45,2.27,8,2.01,11.13-0.71l162.61-141.09c4.19-3.62,4.23-10.09,0.12-13.79
										l-9.14-8.15l-176.01,150.22l3.33,4L1317.77,2145.34z"/><path fill="#fff" d="M1262.9,2080.21l82.03-69.65l-37.48-43.83l-29.05-33.95c-13.37,6.8-28.33,16.62-43.22,29.33
										c-15.3,13.06-28.41,27.15-38.33,40.19c9.65,10.89,19.43,22.12,29.07,33.46C1235.42,2046.94,1253.96,2069.03,1262.9,2080.21
										z"/><path fill="#010f2d" d="M1262.9,2082.93c-0.08,0-0.17,0-0.26-0.01c-0.73-0.07-1.4-0.43-1.86-1.01
										c-8.73-10.91-26.85-32.53-36.93-44.39c-8.97-10.55-18.74-21.8-29.03-33.41c-0.86-0.97-0.91-2.41-0.13-3.45
										c10.72-14.1,24.11-28.14,38.72-40.61c14.11-12.04,29.24-22.31,43.75-29.69c1.12-0.56,2.48-0.29,3.29,0.66l66.54,77.77
										c0.47,0.55,0.7,1.26,0.64,1.98c-0.06,0.72-0.4,1.39-0.95,1.85l-82.03,69.65C1264.17,2082.7,1263.54,2082.93,1262.9,2082.93
										z M1200.37,2002.18c9.77,11.05,19.05,21.74,27.62,31.82c9.47,11.14,26.03,30.88,35.28,42.33l77.82-66.08l-63.36-74.07
										c-13.56,7.11-27.62,16.76-40.79,28C1223.23,1975.88,1210.63,1988.98,1200.37,2002.18z"/><polygon fill="#010f2d" points="1363.09 2024.71 1368.02 2025.2 1370.24 2002.14 1365.09 2003.86"/><g><polygon fill="#010f2d" points="1378.39 2019.48 1383.3 2020.11 1386.29 1996.79 1381.06 1998.54"/></g><g><polygon fill="#010f2d" points="1393.68 2014.32 1398.61 2014.94 1401.59 1991.72 1396.35 1993.46"/></g><g><path fill="#fff" d="M1103.18,1993.3c0,0-21.17,24.76-126.63-30.08c-42.79-22.25-61.26-53.5-61.26-53.5l36.63-25.94h49.7
									l68.15,27.04L1103.18,1993.3z"/><path fill="#010f2d" d="M1082.18,2001.49c-18.75,0-51.47-7.04-106.89-35.86c-42.99-22.35-61.58-53.23-62.35-54.53
									c-0.72-1.22-0.39-2.79,0.77-3.6l36.63-25.94c0.46-0.33,1.01-0.5,1.57-0.5h49.7c0.34,0,0.68,0.06,1,0.19l68.14,27.03
									c0.69,0.27,1.24,0.82,1.52,1.51l33.43,82.49c0.38,0.94,0.21,2.01-0.45,2.79
									C1104.81,1995.58,1099.35,2001.49,1082.18,2001.49z M918.99,1910.42c4.95,7.29,23.59,32.07,58.81,50.39
									c88.15,45.83,116.31,35.16,122.1,31.62l-32.22-79.52l-66.58-26.42h-48.32L918.99,1910.42z"/></g><g><path fill="#2dc874" d="M895.86,2056.65c-0.58,4.09,1.6,8.09,5.39,9.76l197.01,86.79c5.06,2.25,10.93-0.48,12.52-5.77
										l1.96-6.71l1.5-5.03l1.18-4.02c2.24-7.62,0.7-15.91-4.18-22.25l-40.68-42.57l-3.8-4l-7.33-7.68l-3.82-3.98l-7.86-8.25
										l-3.75-3.91l-14.68-15.37l2.55-5.65l-97.82-44.05l-30.81,66.72l-2.19,4.72L895.86,2056.65z"/><path fill="#010f2d" d="M1101.98,2156.71c-1.64,0-3.28-0.34-4.82-1.02l-197.01-86.79c-4.86-2.15-7.74-7.34-6.98-12.63
										c0.04-0.26,0.11-0.52,0.22-0.76l38.2-82.7c0.62-1.36,2.23-1.95,3.58-1.34l97.82,44.05c1.37,0.62,1.98,2.22,1.36,3.59
										l-1.79,3.99l80.65,84.43c5.57,7.22,7.3,16.45,4.82,24.9l-4.64,15.76c-0.99,3.3-3.34,6-6.45,7.43
										C1105.37,2156.35,1103.67,2156.71,1101.98,2156.71z M898.51,2057.4c-0.24,2.76,1.3,5.41,3.84,6.53l197.02,86.8
										c1.72,0.76,3.61,0.75,5.31-0.04c1.7-0.78,2.97-2.25,3.51-4.03l4.64-15.75c1.99-6.79,0.6-14.21-3.72-19.83l-81.73-85.54
										c-0.76-0.8-0.97-1.98-0.51-2.99l1.43-3.18l-92.89-41.82L898.51,2057.4z"/><path fill="#010f2d" d="M895.86,2056.65c-0.58,4.09,1.6,8.09,5.39,9.76l197.01,86.79c5.06,2.25,10.93-0.48,12.52-5.77
										l3.46-11.74l-211-95.02l-2.19,4.72L895.86,2056.65z"/><path fill="#fff" d="M931.32,1979.22l98.01,44.43l23.62-52.61l18.29-40.77c-11.85-9.19-27.13-18.52-44.98-26.56
										c-18.34-8.26-36.68-14.1-52.7-17.5c-5.73,13.38-11.7,27.01-17.84,40.57C949.67,1940.17,937.61,1966.36,931.32,1979.22z"/><path fill="#010f2d" d="M1029.33,2026.37c-0.38,0-0.77-0.08-1.12-0.24l-98.01-44.43c-0.67-0.3-1.19-0.86-1.44-1.55
										c-0.25-0.69-0.21-1.45,0.12-2.12c6.19-12.64,17.97-38.22,24.37-52.35c5.76-12.71,11.75-26.34,17.82-40.52
										c0.51-1.19,1.82-1.88,3.06-1.59c17.31,3.67,35.73,9.78,53.26,17.68c16.92,7.62,32.66,16.92,45.53,26.89
										c0.99,0.77,1.33,2.12,0.81,3.26l-41.91,93.38c-0.3,0.66-0.84,1.17-1.52,1.43
										C1029.98,2026.31,1029.66,2026.37,1029.33,2026.37z M934.99,1977.9l92.98,42.15l39.91-88.92
										c-12.21-9.22-26.93-17.82-42.73-24.93c-16.45-7.4-33.67-13.21-49.97-16.84c-5.78,13.47-11.49,26.44-16.98,38.56
										C952.19,1941.19,941.42,1964.57,934.99,1977.9z"/><polygon fill="#010f2d" points="1024.29 2046.12 1025.95 2050.78 1047.75 2042.95 1043.99 2039.03"/><g><polygon fill="#010f2d" points="1035.55 2057.72 1037.07 2062.43 1059.43 2055.17 1055.62 2051.2"/></g><g><polygon fill="#010f2d" points="1046.74 2069.34 1048.29 2074.06 1070.55 2066.84 1066.75 2062.85"/></g></g><g><path fill="#2dc874" d="M1171.41,1342.59c0,0-212.82,171.42-298.74,156.44c-88.19-15.37-151.87-300.97-151.87-300.97
										l10.7-66.05c0,0,77.12-21,114.07,2.27c36.95,23.24,93.35,175.84,93.35,175.84l156.85-112.24
										C1059.19,1256.19,1120.8,1341.94,1171.41,1342.59z"/><path fill="#010f2d" d="M884.1,1502.68c-4.18,0-8.14-0.31-11.89-0.96c-88.96-15.51-151.44-291.33-154.06-303.06
										c-0.07-0.34-0.08-0.68-0.03-1.03l10.7-66.05c0.17-1.05,0.94-1.91,1.97-2.19c3.2-0.87,78.7-21.04,116.23,2.59
										c34.68,21.81,84.5,150.77,93.2,173.87l153.97-110.17c1.05-0.75,2.49-0.66,3.44,0.23c0.94,0.89,1.13,2.32,0.44,3.42
										c-15.17,24.18-14.16,55.87,2.77,86.95c17.02,31.24,46.05,53.28,70.61,53.59c1.15,0.01,2.16,0.75,2.53,1.83
										c0.38,1.08,0.03,2.29-0.86,3C1164.77,1351.43,975.9,1502.68,884.1,1502.68z M723.56,1197.98
										c3.09,13.55,65.89,283.79,149.57,298.38c76.25,13.3,257.71-125.4,291.22-151.65c-24.72-3.86-51.94-25.81-68.29-55.82
										c-15.61-28.66-18.33-57.96-7.99-82.16L940.5,1312.33c-0.69,0.5-1.57,0.64-2.38,0.39c-0.81-0.25-1.46-0.86-1.75-1.66
										c-0.56-1.52-56.5-152-92.25-174.48c-32.56-20.5-98.81-5.23-110.22-2.38L723.56,1197.98z"/><path fill="#fff" d="M1103.18,1993.3c-43.91-56.06-111.43-92.5-187.89-83.58l104.91-241.84l-328.19-13.14v-179.72
										l153.56,22.18c0,0,351.91-98.47,406.91,58.23C1304.54,1703.68,1103.18,1993.3,1103.18,1993.3z"/><path fill="#010f2d" d="M1103.18,1996.02c-0.84,0-1.62-0.38-2.14-1.04c-47.53-60.67-115.1-90.77-185.44-82.56
										c-0.98,0.08-1.92-0.3-2.5-1.08c-0.58-0.78-0.7-1.81-0.31-2.7l103.33-238.2l-324.23-12.98c-1.46-0.06-2.61-1.26-2.61-2.71
										v-179.72c0-0.79,0.34-1.54,0.94-2.06c0.6-0.51,1.38-0.74,2.17-0.63l153,22.1c7.7-2.1,92.71-24.81,182.86-29.59
										c125.43-6.67,203.86,24.36,226.79,89.69c51.91,147.86-141.38,428.45-149.63,440.32c-0.5,0.71-1.29,1.14-2.16,1.17
										C1103.24,1996.02,1103.21,1996.02,1103.18,1996.02z M938.37,1905.66c62.55,0,121.41,29.46,164.64,83.06
										c21.12-31.26,195.07-295.2,146.9-432.39c-53.54-152.51-400.12-57.49-403.61-56.51c-0.37,0.1-0.74,0.12-1.12,0.07
										l-150.45-21.73v173.97l325.58,13.04c0.9,0.04,1.72,0.51,2.19,1.27c0.48,0.76,0.55,1.7,0.19,2.53l-103.06,237.57
										C925.91,1905.95,932.16,1905.66,938.37,1905.66z"/><line x1="1020.2" x2="1094.59" y1="1667.89" y2="1592.5" fill="#fff"/><path fill="#010f2d" d="M1020.2,1670.61c-0.69,0-1.38-0.26-1.91-0.78c-1.07-1.05-1.08-2.77-0.03-3.84l74.39-75.39
										c1.06-1.08,2.78-1.08,3.84-0.03c1.07,1.05,1.08,2.77,0.03,3.84l-74.39,75.39C1021.6,1670.34,1020.9,1670.61,1020.2,1670.61
										z"/><g><path fill="#fff" d="M836.33,1546.79l198.24,75.38c14.08,5.35,26.48,14.36,35.92,26.1l267.25,284.59
										c-45.72-10.02-147.14,85.41-137.72,133.71l-234.5-265.96l-283.39-62.13c-81.91-28.08-125.61-106.33-125.61-192.93v-16.49
										l172.73-22.99"/><path fill="#010f2d" d="M1200.02,2069.29c-0.76,0-1.51-0.32-2.04-0.92l-233.91-265.29l-282.53-61.94
										c-78.91-27.03-127.75-101.94-127.75-195.58v-16.49c0-1.36,1.01-2.51,2.36-2.69l172.73-22.99c1.45-0.23,2.85,0.85,3.05,2.34
										c0.2,1.49-0.85,2.85-2.34,3.05l-170.37,22.68v14.11c0,91.24,47.43,164.18,123.77,190.35l283.1,62.05
										c0.57,0.12,1.08,0.42,1.46,0.86l229.13,259.87c0.69-25.8,24.23-58.01,47.82-81.06c23.78-23.23,59.13-48.24,85.86-48.24
										c0.12,0,0.24,0,0.37,0l-262.24-279.26c-9.27-11.51-21.28-20.25-34.9-25.42l-198.24-75.38c-1.4-0.53-2.11-2.11-1.57-3.51
										c0.53-1.41,2.1-2.11,3.51-1.57l198.24,75.38c14.52,5.52,27.34,14.84,37.07,26.94L1339.72,1931
										c0.81,0.87,0.97,2.17,0.38,3.2c-0.59,1.03-1.79,1.57-2.94,1.31c-20.38-4.46-56.1,14.02-88.84,46
										c-31.7,30.97-49.6,64.15-45.63,84.53c0.23,1.2-0.37,2.42-1.47,2.96C1200.84,2069.2,1200.43,2069.29,1200.02,2069.29z"/></g><g><path fill="#2dc874" d="M711.72,1135.76c-14.86,0.12-25.26,1.23-25.26,1.23c-6.73,1.95-139.64-55.03-183.57-16.36
										c-93.54,82.35,29.26,449.93,29.26,449.93c71.62,8.42,199.68-66.75,313.42-73.38c0,0-5.84-128.19-16.81-226.31"/><path fill="#010f2d" d="M544.15,1573.95c-4.25,0-8.36-0.22-12.32-0.69c-1.04-0.12-1.93-0.84-2.26-1.84
										c-5.04-15.08-122.29-370.24-28.47-452.83c35.51-31.27,123.66-3.2,166.03,10.28c8.8,2.8,17.11,5.45,18.85,5.45
										c0.01,0,0.02,0,0.04,0c0.58-0.08,10.85-1.17,25.68-1.28c0.01,0,0.01,0,0.02,0c1.49,0,2.71,1.2,2.72,2.7
										c0.01,1.5-1.2,2.73-2.7,2.74c-13.6,0.11-23.54,1.07-24.84,1.2c-2.15,0.44-6.19-0.77-21.42-5.62
										c-38.18-12.15-127.58-40.61-160.79-11.39c-87.96,77.43,20.74,418.49,29.49,445.38c35.33,3.42,85.79-13.54,139.13-31.49
										c53.17-17.89,113.32-38.13,169.41-41.92c-0.91-18.92-6.7-134.32-16.68-223.46c-0.17-1.49,0.91-2.83,2.4-3
										c1.49-0.14,2.83,0.91,3,2.4c10.86,97.08,16.78,225.2,16.83,226.48c0.07,1.49-1.07,2.75-2.56,2.84
										c-56.12,3.27-116.98,23.75-170.68,41.81C624.05,1558.88,579.25,1573.95,544.15,1573.95z"/></g></g><g><path fill="#ff4301" d="M324.09,1485.16c0,0,16.84,152.28,63.04,216.18c46.2,63.9,257.78,32.82,257.78,32.82
									s-52.68-21.16-59.15-68.65c-6.48-47.5-31.82-124.55-51.38-138.1C514.81,1513.86,324.09,1485.16,324.09,1485.16z"/><path fill="#010f2d" d="M535.64,1744.59c-59.87,0-126.55-8.24-150.71-41.65c-46.09-63.75-62.85-211.23-63.54-217.48
									c-0.1-0.84,0.21-1.67,0.82-2.26c0.61-0.58,1.46-0.87,2.29-0.73c7.81,1.17,191.58,28.95,211.42,42.7
									c21.08,14.59,46.39,94.97,52.53,139.96c6.18,45.34,56.96,66.29,57.48,66.5c1.14,0.46,1.83,1.62,1.68,2.85
									c-0.15,1.22-1.09,2.19-2.3,2.37C641.11,1737.47,591.32,1744.59,535.64,1744.59z M327.22,1488.38
									c2.88,23.16,20.74,154.14,62.12,211.37c39.34,54.41,205.38,37.86,246.14,32.9c-15.52-8.28-47.33-29.55-52.41-66.77
									c-6.67-48.91-32.23-123.76-50.24-136.23C518.03,1519.4,393.92,1498.5,327.22,1488.38z"/></g></g><g><path fill="#ffa58d" d="M275.77,1489.92c58.61,49.4,217.08,31.86,244.72,56.42c27.63,24.56,52.93,168.45,120.53,208.11
								c64.77,38,167.03,11.64,167.03,11.64s-87.1-21.82-114.6-28.83c-31.57-8.04-78.77-29.44-96.98-87.06
								c-22.77-72.04-36.69-111.68-54.08-127.27c-17.4-15.6-189.49-25.14-219.68-48.16c-30.19-23.03-49.64-92.11-45.54-141.74
								c4.09-49.64,36.33-76.76,36.33-76.76s-36.84-0.51-53.73,39.4C242.89,1335.58,259.72,1476.39,275.77,1489.92z"/><path fill="#010f2d" d="M731.95,1777.84c-30.34,0-64.51-4.74-92.3-21.05c-43.37-25.44-69.04-91.4-89.67-144.4
								c-11.56-29.71-21.55-55.36-31.3-64.03c-10.78-9.58-44.58-12.52-83.73-15.93c-56.11-4.88-125.94-10.96-160.93-40.45
								c-18.06-15.22-33.7-157.34-16.75-197.39c17.4-41.13,55.82-41.08,56.27-41.06c1.13,0.02,2.14,0.74,2.52,1.8
								c0.38,1.07,0.06,2.26-0.81,2.99c-0.31,0.27-31.43,27.06-35.37,74.9c-3.86,46.83,14.34,116.37,44.48,139.36
								c15.87,12.11,74.55,20.68,126.32,28.24c52.69,7.69,85.39,12.78,93.52,20.06c18.56,16.63,33.1,59.64,54.86,128.48
								c17.34,54.86,61.26,76.64,95.07,85.25c27.5,7,114.59,28.83,114.59,28.83c1.2,0.3,2.05,1.38,2.06,2.63
								c0,1.25-0.84,2.33-2.04,2.64C806.32,1769.35,772.56,1777.84,731.95,1777.84z M277.52,1487.84
								c33.67,28.38,102.55,34.37,157.9,39.19c41.76,3.63,74.75,6.5,86.87,17.28c10.73,9.54,20.45,34.51,32.75,66.12
								c20.32,52.22,45.61,117.2,87.35,141.68c50.57,29.66,125.47,19.23,153.69,13.78c-24.48-6.14-81.91-20.55-103.3-26
								c-35.14-8.95-80.81-31.64-98.9-88.88c-20.85-65.98-35.83-110.4-53.31-126.07c-7.32-6.56-49.7-12.75-90.68-18.74
								c-54.99-8.03-111.84-16.33-128.84-29.29c-32.43-24.73-50.59-95.81-46.6-144.13c3.11-37.8,21.92-62.61,31.59-73.04
								c-11.18,2.06-32.2,9.59-43.78,36.96C245.42,1336.56,263.64,1476.13,277.52,1487.84L277.52,1487.84z"/></g><g><line x1="965.52" x2="931.32" y1="1800.62" y2="1741.72" fill="#fff"/><path fill="#010f2d" d="M965.53,1803.33c-0.94,0-1.85-0.48-2.35-1.35l-34.2-58.9c-0.75-1.3-0.31-2.96,0.98-3.72
								c1.31-0.76,2.97-0.31,3.72,0.98l34.2,58.9c0.75,1.3,0.31,2.96-0.98,3.72C966.46,1803.22,965.99,1803.33,965.53,1803.33z"/></g><g><line x1="938.93" x2="877.48" y1="1310.11" y2="1360.37" fill="#2dc874"/><path fill="#010f2d" d="M877.48,1363.08c-0.79,0-1.57-0.34-2.1-1c-0.95-1.16-0.78-2.87,0.38-3.82l61.45-50.25
								c1.15-0.95,2.87-0.79,3.83,0.38c0.95,1.16,0.78,2.87-0.39,3.82l-61.45,50.25C878.7,1362.88,878.09,1363.08,877.48,1363.08z"/></g><g><path fill="#2dc874" d="M669.64,1368.26c0,0,35.37,24.41,22.37,98.41c-10.69,60.86-57.12,58.48-57.12,58.48l-43.63-44.75
								l24.92-103.44L669.64,1368.26z"/><path fill="#010f2d" d="M635.32,1527.87c-0.34,0-0.53-0.01-0.56-0.01c-0.68-0.04-1.33-0.33-1.81-0.82l-43.63-44.75
								c-0.65-0.67-0.91-1.62-0.7-2.53l24.92-103.44c0.26-1.07,1.13-1.87,2.21-2.05l53.45-8.7c0.7-0.11,1.4,0.05,1.98,0.45
								c1.5,1.04,36.65,26.26,23.51,101.11C684.36,1525.96,640.81,1527.87,635.32,1527.87z M594.26,1479.57l41.8,42.87
								c6.84-0.06,43.9-2.86,53.28-56.25c11.39-64.87-15.37-90.8-20.44-95.06l-50.49,8.22L594.26,1479.57z"/><path fill="#fff" d="M609.41,1397.18c0,0,35.99-2.3,47.59-5.26c21.91-5.58,83.3-34.11,88.71-17.65
									c5.45,16.48-19.5,29.6-19.5,29.6s85.36-7.87,86.92,13.42c0.95,13.53-34.17,16.33-36.3,16.51
									c2.27,0.23,43.22,4.37,40.78,17.66c-3.13,17.19-48.96,10.76-51.25,10.43c1.87,0.65,40.12,14.15,28.34,25.96
									c-10.71,10.76-39.43,0.41-45.8-2.01c6.59,3.1,26.74,14.06,7.89,23.04c-20.94,9.91-74.71-7.3-103.81-10.65
									c-12.3-1.41-48.57-1.82-48.57-1.82"/><path fill="#010f2d" d="M738.88,1514.62c-15.98,0-36.32-4.19-54.98-8.03c-11.62-2.39-22.59-4.65-31.25-5.64
									c-12.02-1.38-47.93-1.8-48.29-1.8c-1.5-0.02-2.7-1.25-2.69-2.75c0.01-1.5,1.2-2.63,2.75-2.69
									c1.49,0.02,36.55,0.43,48.85,1.84c8.89,1.02,19.98,3.31,31.72,5.72c26.63,5.49,56.82,11.69,70.61,5.17
									c2.35-1.12,6.31-3.4,6.31-6.02c-0.01-3.26-5.71-8.13-14.18-12.11c-1.32-0.62-1.91-2.18-1.34-3.52
									c0.57-1.35,2.11-1.99,3.47-1.48c15.97,6.07,35.63,9.95,42.91,2.64c1.58-1.59,1.56-2.75,1.37-3.58
									c-1.45-6.3-17.94-14.16-28.68-17.9c-1.32-0.46-2.08-1.85-1.74-3.21c0.33-1.36,1.67-2.27,3.02-2.05
									c18.3,2.59,46.24,2.56,48.19-8.22c0.19-1.03-0.07-1.97-0.81-2.96c-4.95-6.59-25.95-10.34-37.57-11.52
									c-1.4-0.14-2.46-1.32-2.45-2.73c0.01-1.41,1.09-2.57,2.49-2.69c16.69-1.41,34.34-6.26,33.82-13.61
									c-0.11-1.52-0.9-2.89-2.42-4.17c-12.45-10.55-63.09-8.44-81.54-6.74c-1.34,0.13-2.49-0.69-2.86-1.93
									c-0.37-1.25,0.19-2.58,1.34-3.18c0.23-0.12,22.85-12.25,18.19-26.34c-0.32-0.96-0.96-1.65-2.02-2.17
									c-9.14-4.46-38.37,6.02-59.7,13.68c-9.6,3.45-17.9,6.43-23.74,7.91c-11.71,2.98-46.61,5.24-48.09,5.34
									c-1.47,0.1-2.79-1.04-2.88-2.54c-0.1-1.5,1.04-2.79,2.54-2.88c0.36-0.02,35.87-2.32,47.09-5.18
									c5.59-1.42,13.77-4.36,23.24-7.76c24.71-8.88,52.71-18.93,63.93-13.45c2.4,1.17,4.01,2.97,4.8,5.35
									c3.8,11.48-4.77,21.17-12.05,27c19.85-1.17,62.32-2.23,75.27,8.75c2.65,2.24,4.11,4.91,4.32,7.93
									c0.64,9.16-10.21,14.09-21.3,16.74c9.57,2.08,19.86,5.5,23.93,10.92c1.65,2.19,2.28,4.68,1.81,7.2
									c-2.3,12.63-22.04,14.56-37.4,14.08c7.59,3.96,15.22,9.27,16.56,15.11c0.49,2.16,0.4,5.4-2.82,8.64
									c-7.12,7.15-20.53,6.3-32.15,3.66c1.75,2.13,2.88,4.47,2.89,6.96c0.01,4.28-3.16,7.96-9.41,10.94
									C752.99,1513.69,746.43,1514.62,738.88,1514.62z"/><g><path fill="#010f2d" d="M776.72,1436.52c-0.08,0-0.17,0-0.25-0.01l-39.87-3.66c-1.5-0.14-2.6-1.46-2.46-2.96
										c0.14-1.5,1.49-2.6,2.96-2.46l39.87,3.66c1.5,0.14,2.6,1.46,2.46,2.96C779.29,1435.46,778.11,1436.52,776.72,1436.52z"/><path fill="#010f2d" d="M766.28,1464.57c-0.15,0-0.31-0.01-0.46-0.04l-31.61-5.4c-1.48-0.25-2.47-1.66-2.22-3.14
										c0.25-1.48,1.69-2.48,3.14-2.22l31.61,5.4c1.48,0.25,2.47,1.66,2.22,3.14C768.73,1463.64,767.58,1464.57,766.28,1464.57z"/><path fill="#010f2d" d="M748.1,1488.23c-0.21,0-0.41-0.02-0.62-0.07l-27.03-6.32c-1.46-0.34-2.37-1.8-2.03-3.27
										c0.34-1.46,1.79-2.37,3.27-2.03l27.03,6.32c1.46,0.34,2.37,1.8,2.03,3.27C750.45,1487.38,749.33,1488.23,748.1,1488.23z"/></g><g><path fill="#2dc874" d="M600.78,1111.5c0,0-88.91-33.33-139.07,10.47c-37.4,32.66-190.43,251.58-171.32,330.72
								c19.1,79.14,347.81,72.7,347.81,72.7c-28.41-41.47-22.01-137.85,31.44-157.13l-207.93-4.09c0,0,101.39-106.01,106.24-143.55"/><path fill="#010f2d" d="M618.17,1528.27c-72.55,0-313.61-5.27-330.43-74.94c-19.2-79.56,133.76-299.86,172.18-333.41
								c50.8-44.37,138.12-12.35,141.81-10.97c1.41,0.53,2.12,2.09,1.59,3.5c-0.52,1.41-2.11,2.12-3.5,1.59
								c-0.87-0.33-87.98-32.23-136.33,9.97c-37.96,33.15-189.27,250.17-170.47,328.04c17.13,70.99,299.56,71.03,340.27,70.68
								c-15.61-26.73-19.05-71.27-7.75-106.32c4.97-15.39,14.52-34.65,32.62-45.67l-196.51-3.86c-1.08-0.02-2.04-0.68-2.46-1.67
								c-0.41-1-0.2-2.14,0.55-2.92c1.01-1.05,100.83-105.79,105.51-142.02c0.19-1.49,1.59-2.55,3.04-2.35
								c1.49,0.19,2.54,1.56,2.35,3.04c-4.39,33.98-83.18,119.76-102.74,140.61l201.78,3.97c1.31,0.02,2.42,0.98,2.63,2.28
								c0.21,1.3-0.53,2.56-1.76,3c-23,8.3-34.36,30.29-39.84,47.27c-11.45,35.5-7.27,80.97,9.72,105.77
								c0.56,0.82,0.63,1.89,0.17,2.78s-1.37,1.45-2.36,1.48C636.45,1528.15,629.28,1528.27,618.17,1528.27z"/></g><g><line x1="461.71" x2="405.7" y1="1364.17" y2="1356.57" fill="#2dc874"/><path fill="#010f2d" d="M461.71,1366.89c-0.12,0-0.24-0.01-0.37-0.02l-56.01-7.6c-1.49-0.2-2.53-1.57-2.33-3.06
								c0.2-1.49,1.58-2.51,3.06-2.33l56.01,7.6c1.49,0.2,2.53,1.57,2.33,3.06C464.22,1365.9,463.05,1366.89,461.71,1366.89z"/></g></g><g><path fill="#fff" d="M734.43,1131.52c0,0,41.23,19.29,35.41,39.56c-5.82,20.27-37.34,20.68-51.99,10.24
							c-14.65-10.44-14.65-11.28-14.65-11.28s-1.72,29.97-31.42,29.16c-29.71-0.8-37.01-31.22-37.01-31.22s-28.14,15.98-48.46,3.53
							c-43.49-26.63,14.47-60.02,14.47-60.02l85.68,25.49c0,0,12.66-0.29,13.92-0.94L734.43,1131.52z"/><path fill="#010f2d" d="M672.95,1201.94c-0.41,0-0.83-0.01-1.25-0.02c-25.41-0.69-35.55-21.81-38.54-30.05
							c-8.02,3.84-30.57,12.8-48.27,1.97c-11.72-7.18-17.6-15.63-17.48-25.11c0.28-21.08,30.72-38.84,32.01-39.59
							c0.64-0.38,1.42-0.46,2.13-0.25l85.27,25.37c5.28-0.13,11.47-0.44,12.58-0.75c0.28-0.15,0.3-0.12,0.61-0.16l34.05-4.53
							c0.5-0.07,1.04,0.01,1.51,0.23c1.77,0.83,43.26,20.53,36.87,42.78c-2.26,7.87-8.07,13.65-16.81,16.7
							c-12.37,4.33-29.3,2.18-39.37-5c-5.32-3.79-8.85-6.39-11.19-8.22C703.01,1184.29,696.02,1201.93,672.95,1201.94z
							 M634.76,1165.27c0.37,0,0.74,0.07,1.08,0.23c0.78,0.34,1.36,1.03,1.56,1.85c0.28,1.16,7.22,28.4,34.44,29.14
							c0.36,0.01,0.71,0.01,1.07,0.01c25.65,0,27.51-25.52,27.57-26.62c0.09-1.47,1.33-2.61,2.81-2.56c0.9,0.03,1.69,0.5,2.16,1.2
							c0.42,0.43,2.76,2.6,13.97,10.58c8.76,6.24,23.56,8.09,34.42,4.3c4.88-1.71,11.16-5.35,13.38-13.07
							c4.15-14.47-21.93-30.56-33.24-36.02l-32.99,4.39c-1.15,0.33-4.27,0.78-14.47,1.01c-0.23-0.01-0.56-0.04-0.84-0.11
							l-84.53-25.15c-5.08,3.14-28.1,18.28-28.31,34.36c-0.1,7.42,4.91,14.29,14.88,20.39c18.73,11.47,45.43-3.43,45.7-3.58
							C633.84,1165.39,634.3,1165.27,634.76,1165.27z"/></g><g><polyline fill="#fff" points="616.03 1003.32 616.23 1116.09 673.8 1170.75 724.08 1132.89 720.8 1001.1"/><path fill="#010f2d" d="M673.8,1173.47c-0.68,0-1.35-0.25-1.87-0.75l-57.57-54.66c-0.54-0.51-0.85-1.22-0.85-1.97l-0.2-112.77
							c0-1.5,1.21-2.72,2.71-2.72h0c1.5,0,2.71,1.21,2.72,2.71l0.19,111.61L674,1167.2l47.33-35.63l-3.25-130.39
							c-0.04-1.5,1.15-2.75,2.65-2.79c0.02,0,0.05,0,0.07,0c1.47,0,2.68,1.17,2.72,2.65l3.29,131.79c0.02,0.88-0.38,1.71-1.08,2.24
							l-50.28,37.86C674.95,1173.29,674.38,1173.47,673.8,1173.47z"/><path fill="#fff" d="M675.35,1086.43c14.4,5.44,29.8,7.45,45.45,4.15c49.61-10.44,73.41-54.77,65.96-113.89
							c-7.45-59.12-45.78-117.22-118.98-100.86c-61.6,13.77-89.38,66.16-73.73,123.66c1.86,6.83,5.16,14.51,9.67,22.44"/><path fill="#010f2d" d="M705.39,1094.9c-10.19,0-20.56-1.98-31.01-5.93c-1.4-0.53-2.11-2.1-1.58-3.5c0.53-1.4,2.09-2.11,3.5-1.58
							c14.98,5.66,29.75,7.03,43.92,4.03c47.46-9.99,71.32-51.45,63.82-110.89c-4.83-38.28-21.47-69.98-45.65-86.98
							c-19.5-13.71-43.08-17.6-70.04-11.56c-28.34,6.34-50.21,21.11-63.24,42.72c-13.14,21.8-16.15,49.35-8.46,77.58
							c1.79,6.6,5.05,14.13,9.41,21.8c0.74,1.31,0.28,2.97-1.02,3.71c-1.31,0.74-2.97,0.28-3.71-1.02
							c-4.58-8.06-8.02-16.04-9.93-23.07c-8.08-29.67-4.86-58.73,9.05-81.81c13.81-22.91,36.88-38.55,66.7-45.21
							c28.54-6.39,53.56-2.2,74.36,12.42c25.43,17.88,42.9,50.95,47.92,90.75c7.77,61.62-18.33,106.42-68.1,116.89
							C716.1,1094.34,710.77,1094.9,705.39,1094.9z"/><path fill="#010f2d" d="M813.55,888.64c0,2.61-1.86,4.92-4.5,5.43c-3.16,0.65-6.19-1.62-6.6-4.85
							c-4.4-34.38-34.18-49.13-34.18-49.13s29.12,20.35,27.4,57.28c-1.2,26.03-20.15,42.67-20.15,42.67s-28.4-51.02-56.35-60.89
							c-27.92-9.9-37.09,13.47-49.48,17.88c-14.53,5.17-37.47,20.4-37.47,20.4c11.35,21.52-12.66,62.11-12.66,62.11
							c-3.13,30.54,2.48,58.54,16.5,85.48c0,0-96.74,11.54-113.14-66.08c-13.93-65.95,58.31-110.13,58.31-110.13
							s5.02-81.87,52.78-100.57c47.79-18.7,61.44,38.03,61.44,38.03c91.9-31.5,113.67,40.36,118,61.27
							C813.51,887.92,813.55,888.3,813.55,888.64z"/><g><path fill="#fff" d="M619.55,979.54c0,0-30.62-34.13-51.82-19.28c-21.19,14.85-5.93,51.3,16.52,56.92
							c22.45,5.62,38.44-5.43,38.44-5.43"/><path fill="#010f2d" d="M597.11,1021.5c-4.17,0-8.7-0.48-13.52-1.69c-13.39-3.35-25.2-17.07-28.08-32.62
							c-2.26-12.21,1.63-22.84,10.66-29.17c22.9-16.05,54.09,18.23,55.4,19.69c1,1.12,0.91,2.83-0.21,3.84
							c-1.12,1-2.84,0.91-3.84-0.21c-0.29-0.32-29.26-32.15-48.24-18.87c-9.88,6.92-9.52,17.83-8.43,23.72
							c2.47,13.34,12.8,25.52,24.05,28.34c20.89,5.24,36.09-4.93,36.24-5.03c1.24-0.85,2.92-0.53,3.78,0.7
							c0.85,1.24,0.54,2.92-0.69,3.77C623.69,1014.37,613.12,1021.5,597.11,1021.5z"/></g><g><path fill="#fff" d="M485.57,822.76c18.37-13.85,43.71-17.91,65.49-10.49c21.78,7.42,39.37,26.11,45.45,48.3
							c3.55-16.07,0.48-34.96-9.72-47.88c-10.2-12.92-26.36-20.92-42.82-21.2"/><path fill="#010f2d" d="M596.52,863.29c-1.22,0-2.3-0.82-2.62-2c-5.89-21.47-22.64-39.27-43.71-46.45
							c-21.06-7.18-45.2-3.32-62.98,10.08c-1.2,0.91-2.9,0.67-3.8-0.53c-0.91-1.2-0.67-2.9,0.53-3.8
							c19.19-14.47,45.24-18.65,68-10.89c19.09,6.51,34.9,21.09,43.25,39.32c0.34-12.83-3.42-25.64-10.53-34.64
							c-9.76-12.37-24.99-19.91-40.74-20.17c-1.5-0.02-2.7-1.26-2.67-2.76c0.02-1.49,1.24-2.67,2.72-2.67c0.01,0,0.03,0,0.05,0
							c17.36,0.29,34.16,8.61,44.91,22.24c10.27,13.01,14.2,32.23,10.24,50.16c-0.27,1.22-1.34,2.1-2.59,2.13
							C596.56,863.29,596.54,863.29,596.52,863.29z"/></g></g><g><path fill="#010f2d" d="M728.95,1015.47c-1.2,0-2.3-0.8-2.63-2.02c-0.39-1.45,0.48-2.94,1.93-3.32
						c3.59-0.96,13.66-4.41,17.07-8.83c0.71-0.91,1.36-1.85,1.38-2.56c0.02-0.85-0.87-2.05-1.52-2.92l-27.34-36.51
						c-0.9-1.2-0.65-2.91,0.55-3.8c1.2-0.9,2.91-0.65,3.8,0.55l27.34,36.51c1.07,1.42,2.67,3.57,2.6,6.31
						c-0.07,2.59-1.66,4.64-2.52,5.75c-5.15,6.66-18.47,10.35-19.98,10.75C729.42,1015.44,729.18,1015.47,728.95,1015.47z"/></g><g><path fill="#010f2d" d="M714.61,1049.51c-1.61,0-3.24-0.13-4.87-0.41c-7.02-1.19-13.92-4.68-21.09-10.68
						c-1.15-0.96-1.3-2.68-0.34-3.83c0.97-1.15,2.68-1.3,3.83-0.34c6.41,5.37,12.46,8.47,18.51,9.49c7.1,1.2,14.07-0.85,18.19-5.35
						c1.01-1.1,2.73-1.18,3.84-0.17c1.1,1.01,1.18,2.73,0.17,3.84C728.47,1046.84,721.77,1049.51,714.61,1049.51z"/></g><g><ellipse cx="748.49" cy="950.6" fill="#010f2d" rx="7.62" ry="12.18" transform="rotate(-12.856 748.646 950.766)"/></g><g><ellipse cx="688.93" cy="975.64" fill="#010f2d" rx="7.62" ry="12.18" transform="rotate(-12.856 689.073 975.813)"/></g><g><path fill="#010f2d" d="M726.7,944.9c-0.19,0-0.39-0.02-0.58-0.06c-1.47-0.32-2.4-1.77-2.08-3.23c1.62-7.44,6.95-13.99,13.9-17.09
						c6.95-3.11,15.39-2.7,22.01,1.07c1.31,0.74,1.76,2.4,1.02,3.71c-0.74,1.31-2.4,1.77-3.71,1.02c-5.15-2.93-11.7-3.24-17.11-0.83
						c-5.41,2.41-9.55,7.5-10.81,13.29C729.07,944.04,727.95,944.9,726.7,944.9z"/></g><g><path fill="#010f2d" d="M664.79,963.37c-0.19,0-0.39-0.02-0.58-0.06c-1.47-0.32-2.4-1.77-2.08-3.23
						c1.62-7.44,6.94-13.99,13.9-17.09c6.95-3.1,15.38-2.7,22.01,1.07c1.3,0.74,1.76,2.4,1.02,3.71c-0.74,1.31-2.4,1.76-3.71,1.02
						c-5.14-2.93-11.7-3.25-17.1-0.84c-5.41,2.41-9.55,7.51-10.81,13.29C667.16,962.5,666.04,963.37,664.79,963.37z"/></g></g><g><circle cx="1446.02" cy="1479.18" r="102.05" fill="#ffa58d"/><path fill="#ff4301" d="M1489.38,1519.26c-2.01,3.52-6.64,4.66-10.37,2.53l-21.94-12.52c-3.67-2.1-4.95-6.78-2.85-10.45
						l1.26-2.2c2.63-4.61,3.16-9.87,1.82-14.62c-1.41-5.16-4.86-9.66-10.12-12.26c-9.25-4.58-20.53-0.47-25.64,8.49l-0.83,1.46
						c-2.1,3.67-6.78,4.95-10.45,2.85l-21.93-12.52c-3.73-2.13-5.11-6.69-3.1-10.21c5.32-9.32,14.16-15.54,24.18-17.93
						c9.96-2.42,21.08-1.08,30.92,4.54l32.58,18.6C1492.63,1476.27,1500.05,1500.56,1489.38,1519.26z"/></g><g><circle cx="1033.73" cy="1036.33" r="97.41" fill="#c0eed5"/><path fill="#fff" d="M1075.54,1063.58l-84.09,22.49c-1.21,0.32-2.46-0.4-2.78-1.61l-16.68-62.36c-0.32-1.21,0.4-2.46,1.61-2.78
						l84.09-22.49c1.21-0.32,2.46,0.4,2.78,1.61l16.68,62.36C1077.47,1062.01,1076.75,1063.25,1075.54,1063.58z"/><path fill="#fff" d="M1074.38,1017.65l5.23,19.55c0.75,2.82,3.05,4.96,5.91,5.51l13.49,2.59c4.15,0.46,7.46-3.39,6.39-7.42
						l-9.01-33.69c-1.08-4.03-5.87-5.72-9.24-3.24l-10.4,8.98C1074.55,1011.83,1073.62,1014.83,1074.38,1017.65z"/></g><g><path fill="#ffa58d" d="M1103.26,576.58c-0.2,20.36,7.97,38.77,21.26,52.05c13.13,13.13,31.3,21.26,51.33,21.26h158.17
				c1.89,0,3.72,0.65,5.19,1.84l48.91,39.63c5.39,4.37,13.44,0.53,13.44-6.41v-26.82c0-4.56,3.69-8.25,8.25-8.25h21.53
				c40.06,0,73.99-31.65,74.47-71.71c0.24-20.38-7.93-38.86-21.26-52.18c-13.13-13.13-31.3-21.26-51.33-21.26l-255.56,0
				C1137.56,504.75,1103.65,536.48,1103.26,576.58z"/></g><g><path fill="#010f2d" d="M1317.78,620.8c-5.74,0-11.46-0.64-17.02-1.96c-20.14-4.76-38.25-18.37-48.43-36.4l-1.23-2.23
				c-2.63-4.81-5.12-9.35-9.37-11.24c-7.01-3.12-15.24,2.86-17.6,4.77c-1.73,1.4-3.38,2.92-5.03,4.43
				c-3.89,3.57-7.9,7.27-12.98,9.53c-4.83,2.16-10.73,2.29-15.39,0.37c-3.53-1.46-6.06-3.95-7.32-7.22
				c-0.54-1.4,0.16-2.97,1.56-3.51c1.4-0.53,2.97,0.16,3.51,1.56c0.9,2.33,2.85,3.54,4.32,4.15c3.28,1.36,7.64,1.23,11.1-0.31
				c4.26-1.89,7.78-5.13,11.51-8.56c1.73-1.6,3.47-3.19,5.29-4.66c3.8-3.07,13.66-9.76,23.22-5.51c5.93,2.64,9.12,8.46,11.93,13.6
				l1.2,2.16c9.45,16.74,26.25,29.37,44.95,33.79c18.7,4.43,39.38,0.67,55.33-10.06c0.04-0.03,0.08-0.05,0.12-0.08
				c-3.34-2.35-6.39-5.1-9.06-8.21c-4.18-4.88-9.18-12.67-9.29-22.09c-0.1-9.1,5.09-17.64,12.62-20.77
				c8.77-3.65,19.9,0.28,25.36,8.93c4.72,7.5,5.12,17.82,1.06,26.95c-2.35,5.28-6.06,10.17-11.07,14.61
				c11.79,5.79,25.99,6.86,38.26,2.12c18.03-6.97,30.7-26.05,30.13-45.37c-0.04-1.5,1.14-2.75,2.64-2.8c1.6,0.09,2.75,1.14,2.8,2.64
				c0.63,21.55-13.5,42.83-33.61,50.6c-14.44,5.58-31.29,3.94-44.84-3.49c-0.68,0.5-1.38,0.98-2.1,1.47
				C1347.94,616.37,1332.82,620.8,1317.78,620.8z M1358.67,556.43c-1.68,0-3.33,0.3-4.86,0.94c-5.54,2.3-9.35,8.75-9.27,15.69
				c0.09,7.79,4.39,14.43,7.98,18.62c2.76,3.22,5.99,6.01,9.53,8.32c5.15-4.25,8.88-8.94,11.13-13.97
				c3.34-7.49,3.07-15.86-0.69-21.84C1369.45,559.36,1363.91,556.43,1358.67,556.43z"/></g><g><path fill="#010f2d" d="M1900.43,1893.07c-0.01,0-0.02,0-0.04,0c-1.5-0.02-2.7-1.26-2.68-2.76c0.02-1.31,2.14-131.19,20.82-205.15
				c18.74-74.19,52.37-118.83,52.71-119.27c0.92-1.19,2.62-1.42,3.81-0.51c1.19,0.91,1.42,2.62,0.51,3.81
				c-0.33,0.43-33.31,44.27-51.76,117.31c-18.52,73.34-20.64,202.6-20.66,203.89C1903.13,1891.88,1901.91,1893.07,1900.43,1893.07z"/><path fill="#2dc874" d="M2170.36,1297.51c0,0-22.6,233.16-95.57,289.62c-72.97,56.46-112.67-2.46-112.67-2.46
					s-32.89,12.45-37.11-38.63c-4.22-51.08,31.49-115.6,89.87-148.25C2073.26,1365.14,2138.87,1339.37,2170.36,1297.51z"/><path fill="#c0eed5" d="M1962.12,1587.38c-0.53,0-1.07-0.16-1.54-0.48c-1.24-0.85-1.55-2.54-0.69-3.78
					c1.72-2.5,42.5-61.44,66.42-85.5c22.06-22.19,39.33-43.47,59.32-68.12l5.15-6.35c21.92-26.97,73.32-116.73,73.84-117.63
					c0.74-1.3,2.4-1.76,3.71-1.01c1.3,0.75,1.76,2.41,1.01,3.71c-2.12,3.71-52.14,91.05-74.34,118.36l-5.15,6.34
					c-20.08,24.76-37.43,46.14-59.68,68.52c-23.58,23.72-65.38,84.15-65.8,84.76C1963.83,1586.97,1962.98,1587.38,1962.12,1587.38z"/><path fill="#c0eed5" d="M2083.66,1438.95c-1.4,0-2.59-1.07-2.7-2.49l-5.49-66.31c-0.12-1.49,0.99-2.81,2.48-2.93
					c1.49-0.12,2.81,0.99,2.93,2.48l5.49,66.31c0.12,1.49-0.99,2.81-2.48,2.93C2083.81,1438.95,2083.73,1438.95,2083.66,1438.95z"/><path fill="#c0eed5" d="M2023.02,1507.75c-1.33,0-2.49-0.97-2.69-2.33c-0.22-1.48,0.81-2.86,2.3-3.08l101.59-14.74
					c1.47-0.2,2.87,0.81,3.08,2.3c0.22,1.48-0.81,2.86-2.3,3.08l-101.59,14.74C2023.28,1507.74,2023.15,1507.75,2023.02,1507.75z"/><path fill="#c0eed5" d="M1977.53,1565.67c-1.22,0-2.34-0.83-2.64-2.07l-22.14-90.82c-0.36-1.46,0.54-2.93,2-3.28
					c1.44-0.35,2.93,0.53,3.28,2l22.14,90.82c0.36,1.46-0.54,2.93-2,3.28C1977.96,1565.65,1977.75,1565.67,1977.53,1565.67z"/><path fill="#2dc874" d="M1791.51,1598.16c0,0-13.59-115.44-102.99-37.79c-98.82,85.83-88,374.49-46.48,436.39
				c0,0,47.56-141.93,102.67-189.49s113.24-121.54,100.41-168.35C1832.27,1592.12,1791.51,1598.16,1791.51,1598.16z"/><polygon fill="#142546" points="1974.43 2137.76 1854.23 2137.76 1829.41 1890.35 1999.26 1890.35"/><g><path fill="#c0eed5" d="M1643.84,1980.67c-1.48,0-2.69-1.19-2.72-2.68c-0.01-0.76-1.01-76.64,14.92-134.14
				c2.66-9.59,4.93-18.16,7.02-26.09c11.27-42.55,17.47-65.99,51.1-127.78c39.74-73.01,74.54-93.37,76-94.2
				c1.29-0.74,2.96-0.29,3.7,1.02c0.74,1.3,0.29,2.96-1.01,3.71c-0.35,0.2-35.03,20.63-73.92,92.07
				c-33.32,61.21-39.46,84.43-50.62,126.57c-2.1,7.94-4.37,16.53-7.04,26.14c-15.71,56.74-14.73,131.85-14.72,132.61
				c0.02,1.5-1.17,2.74-2.68,2.76C1643.87,1980.67,1643.85,1980.67,1643.84,1980.67z"/></g><g><path fill="#c0eed5" d="M1774.45,1764.09c-1.31,0-2.46-0.94-2.68-2.27c-6.59-39.76-16.09-79.41-28.24-117.85
				c-0.45-1.43,0.34-2.96,1.77-3.41c1.43-0.46,2.96,0.34,3.41,1.77c12.23,38.69,21.8,78.59,28.43,118.6
				c0.24,1.48-0.76,2.88-2.24,3.13C1774.75,1764.08,1774.6,1764.09,1774.45,1764.09z"/></g><g><path fill="#c0eed5" d="M1688.9,1864.1c-1.06,0-2.07-0.63-2.51-1.67l-21.68-51.63c-0.58-1.38,0.07-2.98,1.45-3.56
				c1.39-0.58,2.98,0.07,3.56,1.45l21.68,51.63c0.58,1.38-0.07,2.98-1.45,3.56C1689.61,1864.04,1689.25,1864.1,1688.9,1864.1z"/></g><g><path fill="#c0eed5" d="M1616.09,1759.56c-0.89,0-1.77-0.44-2.29-1.24c-0.81-1.26-0.45-2.94,0.81-3.76
				c27-17.47,56.24-31.2,86.93-40.82c1.43-0.45,2.96,0.35,3.41,1.78c0.45,1.43-0.35,2.96-1.78,3.41
				c-30.22,9.47-59.02,22.99-85.6,40.2C1617.11,1759.42,1616.6,1759.56,1616.09,1759.56z"/></g></g><g><path fill="#2dc874" d="M1990.73,1742.24c0,0-36.47-15.77-53.82,40.61c-17.35,56.38,12.75,184.9,135.06,245.57
			c0,0-8.02-65.07,0-108.45C2081.95,1866,2111.59,1683.96,1990.73,1742.24z"/></g><g><path fill="#c0eed5" d="M2063.97,2010.06c-0.96,0-1.89-0.51-2.39-1.41c-54.92-100.29-59-156.67-61.43-190.36
			c-0.4-5.58-0.75-10.4-1.28-14.7c-3.69-30.04-10.71-60.42-10.78-60.73c-0.34-1.46,0.57-2.92,2.03-3.26
			c1.47-0.36,2.93,0.57,3.26,2.03c0.07,0.31,7.16,30.97,10.88,61.29c0.54,4.44,0.9,9.32,1.31,14.97
			c2.4,33.25,6.43,88.89,60.78,188.14c0.72,1.32,0.24,2.97-1.08,3.69C2064.86,2009.95,2064.41,2010.06,2063.97,2010.06z"/></g><g><path fill="#c0eed5" d="M2071.44,1868.72c-0.65,0-1.3-0.23-1.82-0.7l-69.87-62.75c-1.12-1-1.21-2.72-0.21-3.84
			c1-1.12,2.72-1.21,3.84-0.21l69.87,62.75c1.12,1,1.21,2.72,0.21,3.84C2072.92,1868.41,2072.18,1868.72,2071.44,1868.72z"/></g><g><path fill="#c0eed5" d="M1983.75,1943.3c-0.31,0-0.64-0.05-0.95-0.17c-1.41-0.52-2.12-2.09-1.6-3.5l26-69.88
			c0.52-1.4,2.09-2.13,3.5-1.6c1.41,0.52,2.12,2.09,1.6,3.5l-26,69.88C1985.89,1942.62,1984.85,1943.3,1983.75,1943.3z"/></g><g><line x1="2033.43" x2="2063.97" y1="1944.53" y2="1959.79" fill="#fff"/><path fill="#c0eed5" d="M2063.96,1962.51c-0.41,0-0.82-0.09-1.21-0.29l-30.53-15.26c-1.34-0.67-1.89-2.3-1.22-3.65
			c0.68-1.34,2.31-1.88,3.65-1.22l30.53,15.26c1.34,0.67,1.89,2.3,1.22,3.65C2065.92,1961.95,2064.96,1962.51,2063.96,1962.51z"/></g></svg>